<svg xmlns="http://www.w3.org/2000/svg" width="474.2462463378906" height="544.4163208007812" viewBox="-267.63970947265625 -293.09503173828125 474.2462463378906 544.4163208007812"><title>Neo4j Graph Visualization</title><desc>Created using Neo4j (http://www.neo4j.com/)</desc><g class="layer relationships"><g class="relationship" transform="translate(162.60648480480467 -62.62213341160885) rotate(452.97842776872244)"><path class="outline" fill="#F79767" stroke="none" d="M 40 2.5 L 58.95965815710336 2.5 L 58.95965815710336 -2.5 L 40 -2.5 Z M 107.63153315710336 2.5 L 126.59119131420672 2.5 L 126.59119131420672 5.5 L 137.59119131420672 0 L 126.59119131420672 -5.5 L 126.59119131420672 -2.5 L 107.63153315710336 -2.5 Z"/><text text-anchor="middle" pointer-events="none" font-size="8px" fill="#000000" x="83.29559565710336" y="3" transform="rotate(180 83.29559565710336 0)" font-family="sans-serif">REVIEWED</text></g><g class="relationship" transform="translate(11.381148794944869 -159.8333424744389) rotate(392.7338648100959)"><path class="outline" fill="#569480" stroke="none" d="M 40 2.5 L 63.83095782266163 2.5 L 63.83095782266163 -2.5 L 40 -2.5 Z M 104.94423907266163 2.5 L 128.77519689532326 2.5 L 128.77519689532326 5.5 L 139.77519689532326 0 L 128.77519689532326 -5.5 L 128.77519689532326 -2.5 L 104.94423907266163 -2.5 Z"/><text text-anchor="middle" pointer-events="none" font-size="8px" fill="#000000" x="84.38759844766163" y="3" font-family="sans-serif">BREWED</text></g><g class="relationship" transform="translate(11.381148794944869 -159.8333424744389) rotate(190.7544757180924)"><path class="outline" fill="#57C7E3" stroke="none" d="M 40 2.5 L 75.4187007977418 2.5 L 75.4187007977418 -2.5 L 40 -2.5 Z M 89.4187007977418 2.5 L 124.83740159548361 2.5 L 124.83740159548361 5.5 L 135.8374015954836 0 L 124.83740159548361 -5.5 L 124.83740159548361 -2.5 L 89.4187007977418 -2.5 Z"/><text text-anchor="middle" pointer-events="none" font-size="8px" fill="#000000" x="82.4187007977418" y="3" transform="rotate(180 82.4187007977418 0)" font-family="sans-serif">IN</text></g><g class="relationship" transform="translate(11.381148794944869 -159.8333424744389) rotate(494.34762486706586)"><path class="outline" fill="#57C7E3" stroke="none" d="M 40 2.5 L 77.58369688628666 2.5 L 77.58369688628666 -2.5 L 40 -2.5 Z M 91.58369688628666 2.5 L 129.16739377257332 2.5 L 129.16739377257332 5.5 L 140.16739377257332 0 L 129.16739377257332 -5.5 L 129.16739377257332 -2.5 L 91.58369688628666 -2.5 Z"/><text text-anchor="middle" pointer-events="none" font-size="8px" fill="#000000" x="84.58369688628666" y="3" transform="rotate(180 84.58369688628666 0)" font-family="sans-serif">IN</text></g><g class="relationship" transform="translate(-161.36781376902616 -192.6447388623271) rotate(492.3023900695947)"><path class="outline" fill="#57C7E3" stroke="none" d="M 12.767576369823502 37.98998543880643 L 23.120338173924335 76.62701849036915 A 23.935935394489817 23.935935394489817 0 1 1 -23.120338173924335 76.62701849036915 L -15.614585865951227 48.61516952798618 L -7.887179255638683 50.68572188880635 L -10.352761804100831 38.63703305156273 L -18.512363344818432 47.83871239267862 L -10.784956734505888 49.90926475349878 L -18.29070904247899 77.92111371588176 A 18.935935394489817 18.935935394489817 0 1 0 18.29070904247899 77.92111371588176 L 7.93794723837816 39.28408066431903 Z"/><text text-anchor="middle" pointer-events="none" font-size="8px" fill="#000000" x="0" y="115.75802982729645" transform="rotate(180 0 112.75802982729645)" font-family="sans-serif">IN</text></g><g class="relationship" transform="translate(-161.36781376902616 -192.6447388623271) rotate(433.85030442109706)"><path class="outline" fill="#57C7E3" stroke="none" d="M 40 2.5 L 71.6461813340576 2.5 L 71.6461813340576 -2.5 L 40 -2.5 Z M 85.6461813340576 2.5 L 117.2923626681152 2.5 L 117.2923626681152 5.5 L 128.2923626681152 0 L 117.2923626681152 -5.5 L 117.2923626681152 -2.5 L 85.6461813340576 -2.5 Z"/><text text-anchor="middle" pointer-events="none" font-size="8px" fill="#000000" x="78.6461813340576" y="3" font-family="sans-serif">IN</text></g><g class="relationship" transform="translate(162.60648480480467 -62.62213341160885) rotate(503.7669938864281)"><path class="outline" fill="#FFC454" stroke="none" d="M 40 2.5 L 54.5511557104619 2.5 L 54.5511557104619 -2.5 L 40 -2.5 Z M 106.7933432104619 2.5 L 121.3444989209238 2.5 L 121.3444989209238 5.5 L 132.3444989209238 0 L 121.3444989209238 -5.5 L 121.3444989209238 -2.5 L 106.7933432104619 -2.5 Z"/><text text-anchor="middle" pointer-events="none" font-size="8px" fill="#000000" x="80.6722494604619" y="3" transform="rotate(180 80.6722494604619 0)" font-family="sans-serif">HAS_STYLE</text></g><g class="relationship" transform="translate(153.37885324040872 114.72916218025014) rotate(507.74409639636525)"><path class="outline" fill="#F79767" stroke="none" d="M 40 2.5 L 61.7979514108153 2.5 L 61.7979514108153 -2.5 L 40 -2.5 Z M 100.6924826608153 2.5 L 122.4904340716306 2.5 L 122.4904340716306 5.5 L 133.4904340716306 0 L 122.4904340716306 -5.5 L 122.4904340716306 -2.5 L 100.6924826608153 -2.5 Z"/><text text-anchor="middle" pointer-events="none" font-size="8px" fill="#000000" x="81.2452170358153" y="3" transform="rotate(180 81.2452170358153 0)" font-family="sans-serif">POSTED</text></g></g><g class="layer nodes"><g class="node" aria-label="graph-node-12" transform="translate(153.37885324040872,114.72916218025014)" style="touch-action: none; -webkit-tap-highlight-color: rgba(0, 0, 0, 0);"><circle class="outline" cx="0" cy="0" r="40" fill="#F79767" stroke="#f36924" stroke-width="2px"/><text class="caption" text-anchor="middle" pointer-events="none" x="0" y="5" font-size="10px" fill="#FFFFFF" font-family="sans-serif"> REVIEWS</text></g><g class="node" aria-label="graph-node-11" transform="translate(162.60648480480467,-62.62213341160885)" style="touch-action: none; -webkit-tap-highlight-color: rgba(0, 0, 0, 0);"><circle class="outline" cx="0" cy="0" r="40" fill="#FFC454" stroke="#d7a013" stroke-width="2px"/><text class="caption" text-anchor="middle" pointer-events="none" x="0" y="5" font-size="10px" fill="#2A2C34" font-family="sans-serif"> BEERS</text></g><g class="node" aria-label="graph-node-8" transform="translate(-114.55764951874363,-30.99348506181373)" style="touch-action: none; -webkit-tap-highlight-color: rgba(0, 0, 0, 0);"><circle class="outline" cx="0" cy="0" r="40" fill="#57C7E3" stroke="#23b3d7" stroke-width="2px"/><text class="caption" text-anchor="middle" pointer-events="none" x="0" y="5" font-size="10px" fill="#2A2C34" font-family="sans-serif"> COUNTRIES</text></g><g class="node" aria-label="graph-node-10" transform="translate(11.381148794944869,-159.8333424744389)" style="touch-action: none; -webkit-tap-highlight-color: rgba(0, 0, 0, 0);"><circle class="outline" cx="0" cy="0" r="40" fill="#569480" stroke="#447666" stroke-width="2px"/><text class="caption" text-anchor="middle" pointer-events="none" x="0" y="5" font-size="10px" fill="#FFFFFF" font-family="sans-serif"> BREWERIES</text></g><g class="node" aria-label="graph-node-13" transform="translate(23.589973563944937,39.24560392816043)" style="touch-action: none; -webkit-tap-highlight-color: rgba(0, 0, 0, 0);"><circle class="outline" cx="0" cy="0" r="40" fill="#D9C8AE" stroke="#c0a378" stroke-width="2px"/><text class="caption" text-anchor="middle" pointer-events="none" x="0" y="5" font-size="10px" fill="#2A2C34" font-family="sans-serif"> STYLE</text></g><g class="node" aria-label="graph-node-9" transform="translate(-161.36781376902616,-192.6447388623271)" style="touch-action: none; -webkit-tap-highlight-color: rgba(0, 0, 0, 0);"><circle class="outline" cx="0" cy="0" r="40" fill="#4C8EDA" stroke="#2870c2" stroke-width="2px"/><text class="caption" text-anchor="middle" pointer-events="none" x="0" y="5" font-size="10px" fill="#FFFFFF" font-family="sans-serif"> CITIES</text></g><g class="node" aria-label="graph-node-14" transform="translate(6.662706012908183,207.3212939036379)" style="touch-action: none; -webkit-tap-highlight-color: rgba(0, 0, 0, 0);"><circle class="outline" cx="0" cy="0" r="40" fill="#F16667" stroke="#eb2728" stroke-width="2px"/><text class="caption" text-anchor="middle" pointer-events="none" x="0" y="5" font-size="10px" fill="#FFFFFF" font-family="sans-serif"> USER</text></g></g></svg>