<svg xmlns="http://www.w3.org/2000/svg" width="221.07180786132812" height="1602.4234619140625" viewBox="-0.5358984470367432 -1652.4234619140625 221.07180786132812 1602.4234619140625"><title>Neo4j Graph Visualization</title><desc>Created using Neo4j (http://www.neo4j.com/)</desc><g class="layer links"><g class="link"><path fill="#DFE1E3" d="M 159.14278867394472 -1528.1322814615505 C 159.14278867394472 -1519.0477757707401 159.14278867394472 -1519.0477757707401 159.14278867394472 -1478.1322814615503 L 60.85721132605527 -1478.1322814615503 C 60.85721132605527 -1487.216787152361 60.85721132605527 -1487.216787152361 60.85721132605527 -1528.1322814615505 Z"/><text font-size="10" font-family="sans-serif" fill="rgb(107, 174, 214)" x="110" y="-1514.1322814615505" text-anchor="end">358 869 </text><text font-size="10" font-family="sans-serif" fill="rgb(107, 174, 214)" x="110" y="-1514.1322814615505" text-anchor="start">rows</text></g><g class="link"><path fill="#DFE1E3" d="M 158.71215835056447 -1325.8411385058341 C 158.71215835056447 -1316.7566328150237 158.71215835056447 -1316.7566328150237 158.71215835056447 -1275.8411385058341 L 61.287841649435535 -1275.8411385058341 C 61.287841649435535 -1284.9256441966445 61.287841649435535 -1284.9256441966445 61.287841649435535 -1325.8411385058341 Z"/><text font-size="10" font-family="sans-serif" fill="rgb(107, 174, 214)" x="110" y="-1311.8411385058341" text-anchor="end">320 072 </text><text font-size="10" font-family="sans-serif" fill="rgb(107, 174, 214)" x="110" y="-1311.8411385058341" text-anchor="start">rows</text></g><g class="link"><path fill="#DFE1E3" d="M 158.71215835056447 -1183.8411385058341 C 158.71215835056447 -1174.7566328150237 158.71215835056447 -1174.7566328150237 158.71215835056447 -1133.8411385058341 L 61.287841649435535 -1133.8411385058341 C 61.287841649435535 -1142.9256441966445 61.287841649435535 -1142.9256441966445 61.287841649435535 -1183.8411385058341 Z"/><text font-size="10" font-family="sans-serif" fill="rgb(107, 174, 214)" x="110" y="-1169.8411385058341" text-anchor="end">320 072 </text><text font-size="10" font-family="sans-serif" fill="rgb(107, 174, 214)" x="110" y="-1169.8411385058341" text-anchor="start">rows</text></g><g class="link"><path fill="#DFE1E3" d="M 117.74397750332491 -1007.8411385058341 C 117.74397750332491 -987.7711077012204 117.74397750332491 -987.7711077012204 117.74397750332491 -957.8411385058341 L 102.25602249667509 -957.8411385058341 C 102.25602249667509 -977.9111693104478 102.25602249667509 -977.9111693104478 102.25602249667509 -1007.8411385058341 Z"/><text font-size="10" font-family="sans-serif" fill="rgb(107, 174, 214)" x="110" y="-993.8411385058341" text-anchor="end">5 </text><text font-size="10" font-family="sans-serif" fill="rgb(107, 174, 214)" x="110" y="-993.8411385058341" text-anchor="start">rows</text></g><g class="link"><path fill="#DFE1E3" d="M 117.74397750332491 -837.1628661295156 C 117.74397750332491 -817.0928353249019 117.74397750332491 -817.0928353249019 117.74397750332491 -787.1628661295156 L 102.25602249667509 -787.1628661295156 C 102.25602249667509 -807.2328969341293 102.25602249667509 -807.2328969341293 102.25602249667509 -837.1628661295156 Z"/><text font-size="10" font-family="sans-serif" fill="rgb(107, 174, 214)" x="110" y="-823.1628661295156" text-anchor="end">5 </text><text font-size="10" font-family="sans-serif" fill="rgb(107, 174, 214)" x="110" y="-823.1628661295156" text-anchor="start">rows</text></g><g class="link"><path fill="#DFE1E3" d="M 117.74397750332491 -668.6782723763185 C 117.74397750332491 -648.6082415717049 117.74397750332491 -648.6082415717049 117.74397750332491 -618.6782723763185 L 102.25602249667509 -618.6782723763185 C 102.25602249667509 -638.7483031809322 102.25602249667509 -638.7483031809322 102.25602249667509 -668.6782723763185 Z"/><text font-size="10" font-family="sans-serif" fill="rgb(107, 174, 214)" x="110" y="-654.6782723763185" text-anchor="end">5 </text><text font-size="10" font-family="sans-serif" fill="rgb(107, 174, 214)" x="110" y="-654.6782723763185" text-anchor="start">rows</text></g><g class="link"><path fill="#DFE1E3" d="M 117.74397750332491 -506.67827237631855 C 117.74397750332491 -486.6082415717049 117.74397750332491 -486.6082415717049 117.74397750332491 -456.67827237631855 L 102.25602249667509 -456.67827237631855 C 102.25602249667509 -476.74830318093217 102.25602249667509 -476.74830318093217 102.25602249667509 -506.67827237631855 Z"/><text font-size="10" font-family="sans-serif" fill="rgb(107, 174, 214)" x="110" y="-492.67827237631855" text-anchor="end">5 </text><text font-size="10" font-family="sans-serif" fill="rgb(107, 174, 214)" x="110" y="-492.67827237631855" text-anchor="start">rows</text></g><g class="link"><path fill="#DFE1E3" d="M 117.74397750332491 -308 C 117.74397750332491 -287.9299691953864 117.74397750332491 -287.9299691953864 117.74397750332491 -258 L 102.25602249667509 -258 C 102.25602249667509 -278.0700308046136 102.25602249667509 -278.0700308046136 102.25602249667509 -308 Z"/><text font-size="10" font-family="sans-serif" fill="rgb(107, 174, 214)" x="110" y="-294" text-anchor="end">5 </text><text font-size="10" font-family="sans-serif" fill="rgb(107, 174, 214)" x="110" y="-294" text-anchor="start">rows</text></g><g class="link"><path fill="#DFE1E3" d="M 117.74397750332491 -118 C 117.74397750332491 -97.92996919538638 117.74397750332491 -97.92996919538638 117.74397750332491 -68 L 102.25602249667509 -68 C 102.25602249667509 -88.07003080461362 102.25602249667509 -88.07003080461362 102.25602249667509 -118 Z"/><text font-size="10" font-family="sans-serif" fill="rgb(107, 174, 214)" x="110" y="-104" text-anchor="end">5 </text><text font-size="10" font-family="sans-serif" fill="rgb(107, 174, 214)" x="110" y="-104" text-anchor="start">rows</text></g></g><g class="layer operators"><g class="operator" transform="translate(0, -68)"><rect class="background" width="220" height="18" rx="4" ry="4" fill="rgb(255, 255, 255)"/><g class="header" pointer-events="all"><path class="banner" d="M 216 0 A 4 4 0 0 1 220 4 L 220 14 A 4 4 0 0 1 216 18 L 4 18 A 4 4 0 0 1 0 14 L 0 4 A 4 4 0 0 1 4 0 Z" style="fill: rgb(198, 219, 239);"/><text class="title" font-size="11" font-family="sans-serif" x="18" y="13" fill="#000000">Result</text></g><path class="cost" fill="#F25A29" d="M 216 18 A 4 4 0 0 1 216 18 L 4 18 A 4 4 0 0 1 4 18 Z"/><rect class="outline" width="220" rx="4" ry="4" fill="none" stroke-width="1" style="stroke: rgb(139, 153, 167);" height="18"/></g><g class="operator" transform="translate(0, -258)"><rect class="background" width="220" height="140" rx="4" ry="4" fill="rgb(255, 255, 255)"/><g class="header" pointer-events="all"><path class="banner" d="M 216 0 A 4 4 0 0 1 220 4 L 220 14 A 4 4 0 0 1 220 18 L 0 18 A 4 4 0 0 1 0 14 L 0 4 A 4 4 0 0 1 4 0 Z" style="fill: rgb(198, 219, 239);"/><path class="expand" fill="#000000" d="M -5 -10 L 8.66 0 L -5 10 Z" transform="translate(9, 9) rotate(90) scale(0.5,0.5)"/><text class="title" font-size="11" font-family="sans-serif" x="18" y="13" fill="#000000">ProduceResults@neo4j</text></g><path class="cost" fill="#F25A29" d="M 216 140 A 4 4 0 0 1 216 140 L 4 140 A 4 4 0 0 1 4 140 Z"/><rect class="outline" width="220" rx="4" ry="4" fill="none" stroke-width="1" style="stroke: rgb(139, 153, 167);" height="140"/><g class="detail identifiers" transform="translate(0, 32)" font-family="'Fira Code',Monaco,'Courier New',Terminal,monospace"><text font-size="10" x="3" text-anchor="start" fill="black" font-family="sans-serif">br, breweryName, anon_0, abv, b, </text></g><g class="detail identifiers" transform="translate(0, 46)" font-family="'Fira Code',Monaco,'Courier New',Terminal,monospace"><text font-size="10" x="3" text-anchor="start" fill="black" font-family="sans-serif">beerName</text></g><g class="detail padding" transform="translate(0, 60)" font-family="'Helvetica Neue',Helvetica,Arial,sans-serif"><text font-size="10" x="3" text-anchor="start" fill="black" font-family="sans-serif"/><path class="divider" visibility="visible" d="M 0 -6 L 220 -6" stroke="#DFE1E3"/></g><g class="detail expression" transform="translate(0, 66)" font-family="'Fira Code',Monaco,'Courier New',Terminal,monospace"><text font-size="10" x="3" text-anchor="start" fill="black" font-family="sans-serif">beerName, abv, breweryName</text></g><g class="detail padding" transform="translate(0, 80)" font-family="'Helvetica Neue',Helvetica,Arial,sans-serif"><text font-size="10" x="3" text-anchor="start" fill="black" font-family="sans-serif"/><path class="divider" visibility="visible" d="M 0 -6 L 220 -6" stroke="#DFE1E3"/></g><g class="detail order" transform="translate(0, 86)" font-family="'Helvetica Neue',Helvetica,Arial,sans-serif"><text font-size="10" x="3" text-anchor="start" fill="black" font-family="sans-serif">Ordered by abv DESC</text></g><g class="detail padding" transform="translate(0, 100)" font-family="'Helvetica Neue',Helvetica,Arial,sans-serif"><text font-size="10" x="3" text-anchor="start" fill="black" font-family="sans-serif"/><path class="divider" visibility="visible" d="M 0 -6 L 220 -6" stroke="#DFE1E3"/></g><g class="detail global-memory" transform="translate(0, 106)" font-family="'Helvetica Neue',Helvetica,Arial,sans-serif"><text font-size="10" x="110" text-anchor="end" fill="black" font-family="sans-serif">88 572 880 </text><text font-size="10" x="110" text-anchor="start" fill="black" font-family="sans-serif">total memory (bytes)</text></g><g class="detail estimated-rows" transform="translate(0, 120)" font-family="'Helvetica Neue',Helvetica,Arial,sans-serif"><text font-size="10" x="110" text-anchor="end" fill="black" font-family="sans-serif">5 </text><text font-size="10" x="110" text-anchor="start" fill="black" font-family="sans-serif">estimated rows</text></g><g class="detail db-hits" transform="translate(0, 134)" font-family="'Helvetica Neue',Helvetica,Arial,sans-serif"><text font-size="10" x="110" text-anchor="end" fill="black" font-family="sans-serif">0 </text><text font-size="10" x="110" text-anchor="start" fill="black" font-family="sans-serif">db hits</text></g></g><g class="operator" transform="translate(0, -456.67828369140625)"><rect class="background" width="220" height="148.67827237631855" rx="4" ry="4" fill="rgb(255, 255, 255)"/><g class="header" pointer-events="all"><path class="banner" d="M 216 0 A 4 4 0 0 1 220 4 L 220 14 A 4 4 0 0 1 220 18 L 0 18 A 4 4 0 0 1 0 14 L 0 4 A 4 4 0 0 1 4 0 Z" style="fill: rgb(107, 174, 214);"/><path class="expand" fill="#FFFFFF" d="M -5 -10 L 8.66 0 L -5 10 Z" transform="translate(9, 9) rotate(90) scale(0.5,0.5)"/><text class="title" font-size="11" font-family="sans-serif" x="18" y="13" fill="#FFFFFF">Projection@neo4j</text></g><path class="cost" fill="#F25A29" d="M 0 140 L 220 140 L 220 144.67827237631855 A 4 4 0 0 1 216 148.67827237631855 L 4 148.67827237631855 A 4 4 0 0 1 0 144.67827237631855 Z"/><rect class="outline" width="220" rx="4" ry="4" fill="none" stroke-width="1" style="stroke: rgb(75, 122, 150);" height="148.67827237631855"/><g class="detail identifiers" transform="translate(0, 32)" font-family="'Fira Code',Monaco,'Courier New',Terminal,monospace"><text font-size="10" x="3" text-anchor="start" fill="black" font-family="sans-serif">br, breweryName, anon_0, abv, b, </text></g><g class="detail identifiers" transform="translate(0, 46)" font-family="'Fira Code',Monaco,'Courier New',Terminal,monospace"><text font-size="10" x="3" text-anchor="start" fill="black" font-family="sans-serif">beerName</text></g><g class="detail padding" transform="translate(0, 60)" font-family="'Helvetica Neue',Helvetica,Arial,sans-serif"><text font-size="10" x="3" text-anchor="start" fill="black" font-family="sans-serif"/><path class="divider" visibility="visible" d="M 0 -6 L 220 -6" stroke="#DFE1E3"/></g><g class="detail expression" transform="translate(0, 66)" font-family="'Fira Code',Monaco,'Courier New',Terminal,monospace"><text font-size="10" x="3" text-anchor="start" fill="black" font-family="sans-serif">b.name AS beerName, br.name AS </text></g><g class="detail expression" transform="translate(0, 80)" font-family="'Fira Code',Monaco,'Courier New',Terminal,monospace"><text font-size="10" x="3" text-anchor="start" fill="black" font-family="sans-serif">breweryName</text></g><g class="detail padding" transform="translate(0, 94)" font-family="'Helvetica Neue',Helvetica,Arial,sans-serif"><text font-size="10" x="3" text-anchor="start" fill="black" font-family="sans-serif"/><path class="divider" visibility="visible" d="M 0 -6 L 220 -6" stroke="#DFE1E3"/></g><g class="detail order" transform="translate(0, 100)" font-family="'Helvetica Neue',Helvetica,Arial,sans-serif"><text font-size="10" x="3" text-anchor="start" fill="black" font-family="sans-serif">Ordered by abv DESC</text></g><g class="detail padding" transform="translate(0, 114)" font-family="'Helvetica Neue',Helvetica,Arial,sans-serif"><text font-size="10" x="3" text-anchor="start" fill="black" font-family="sans-serif"/><path class="divider" visibility="visible" d="M 0 -6 L 220 -6" stroke="#DFE1E3"/></g><g class="detail estimated-rows" transform="translate(0, 120)" font-family="'Helvetica Neue',Helvetica,Arial,sans-serif"><text font-size="10" x="110" text-anchor="end" fill="black" font-family="sans-serif">5 </text><text font-size="10" x="110" text-anchor="start" fill="black" font-family="sans-serif">estimated rows</text></g><g class="detail db-hits" transform="translate(0, 134)" font-family="'Helvetica Neue',Helvetica,Arial,sans-serif"><text font-size="10" x="110" text-anchor="end" fill="black" font-family="sans-serif">10 </text><text font-size="10" x="110" text-anchor="start" fill="black" font-family="sans-serif">db hits</text></g></g><g class="operator" transform="translate(0, -618.6782836914062)"><rect class="background" width="220" height="112" rx="4" ry="4" fill="rgb(255, 255, 255)"/><g class="header" pointer-events="all"><path class="banner" d="M 216 0 A 4 4 0 0 1 220 4 L 220 14 A 4 4 0 0 1 220 18 L 0 18 A 4 4 0 0 1 0 14 L 0 4 A 4 4 0 0 1 4 0 Z" style="fill: rgb(107, 174, 214);"/><path class="expand" fill="#FFFFFF" d="M -5 -10 L 8.66 0 L -5 10 Z" transform="translate(9, 9) rotate(90) scale(0.5,0.5)"/><text class="title" font-size="11" font-family="sans-serif" x="18" y="13" fill="#FFFFFF">Limit@neo4j</text></g><path class="cost" fill="#F25A29" d="M 216 112 A 4 4 0 0 1 216 112 L 4 112 A 4 4 0 0 1 4 112 Z"/><rect class="outline" width="220" rx="4" ry="4" fill="none" stroke-width="1" style="stroke: rgb(75, 122, 150);" height="112"/><g class="detail identifiers" transform="translate(0, 32)" font-family="'Fira Code',Monaco,'Courier New',Terminal,monospace"><text font-size="10" x="3" text-anchor="start" fill="black" font-family="sans-serif">b, abv, anon_0, br</text></g><g class="detail padding" transform="translate(0, 46)" font-family="'Helvetica Neue',Helvetica,Arial,sans-serif"><text font-size="10" x="3" text-anchor="start" fill="black" font-family="sans-serif"/><path class="divider" visibility="visible" d="M 0 -6 L 220 -6" stroke="#DFE1E3"/></g><g class="detail expression" transform="translate(0, 52)" font-family="'Fira Code',Monaco,'Courier New',Terminal,monospace"><text font-size="10" x="3" text-anchor="start" fill="black" font-family="sans-serif">5</text></g><g class="detail padding" transform="translate(0, 66)" font-family="'Helvetica Neue',Helvetica,Arial,sans-serif"><text font-size="10" x="3" text-anchor="start" fill="black" font-family="sans-serif"/><path class="divider" visibility="visible" d="M 0 -6 L 220 -6" stroke="#DFE1E3"/></g><g class="detail order" transform="translate(0, 72)" font-family="'Helvetica Neue',Helvetica,Arial,sans-serif"><text font-size="10" x="3" text-anchor="start" fill="black" font-family="sans-serif">Ordered by abv DESC</text></g><g class="detail padding" transform="translate(0, 86)" font-family="'Helvetica Neue',Helvetica,Arial,sans-serif"><text font-size="10" x="3" text-anchor="start" fill="black" font-family="sans-serif"/><path class="divider" visibility="visible" d="M 0 -6 L 220 -6" stroke="#DFE1E3"/></g><g class="detail estimated-rows" transform="translate(0, 92)" font-family="'Helvetica Neue',Helvetica,Arial,sans-serif"><text font-size="10" x="110" text-anchor="end" fill="black" font-family="sans-serif">5 </text><text font-size="10" x="110" text-anchor="start" fill="black" font-family="sans-serif">estimated rows</text></g><g class="detail db-hits" transform="translate(0, 106)" font-family="'Helvetica Neue',Helvetica,Arial,sans-serif"><text font-size="10" x="110" text-anchor="end" fill="black" font-family="sans-serif">0 </text><text font-size="10" x="110" text-anchor="start" fill="black" font-family="sans-serif">db hits</text></g></g><g class="operator" transform="translate(0, -787.162841796875)"><rect class="background" width="220" height="118.48459375319703" rx="4" ry="4" fill="rgb(255, 255, 255)"/><g class="header" pointer-events="all"><path class="banner" d="M 216 0 A 4 4 0 0 1 220 4 L 220 14 A 4 4 0 0 1 220 18 L 0 18 A 4 4 0 0 1 0 14 L 0 4 A 4 4 0 0 1 4 0 Z" style="fill: rgb(33, 113, 181);"/><path class="expand" fill="#FFFFFF" d="M -5 -10 L 8.66 0 L -5 10 Z" transform="translate(9, 9) rotate(90) scale(0.5,0.5)"/><text class="title" font-size="11" font-family="sans-serif" x="18" y="13" fill="#FFFFFF">Filter@neo4j</text></g><path class="cost" fill="#F25A29" d="M 0 112 L 220 112 L 220 114.48459375319703 A 4 4 0 0 1 216 118.48459375319703 L 4 118.48459375319703 A 4 4 0 0 1 0 114.48459375319703 Z"/><rect class="outline" width="220" rx="4" ry="4" fill="none" stroke-width="1" style="stroke: rgb(23, 79, 127);" height="118.48459375319703"/><g class="detail identifiers" transform="translate(0, 32)" font-family="'Fira Code',Monaco,'Courier New',Terminal,monospace"><text font-size="10" x="3" text-anchor="start" fill="black" font-family="sans-serif">b, abv, anon_0, br</text></g><g class="detail padding" transform="translate(0, 46)" font-family="'Helvetica Neue',Helvetica,Arial,sans-serif"><text font-size="10" x="3" text-anchor="start" fill="black" font-family="sans-serif"/><path class="divider" visibility="visible" d="M 0 -6 L 220 -6" stroke="#DFE1E3"/></g><g class="detail expression" transform="translate(0, 52)" font-family="'Fira Code',Monaco,'Courier New',Terminal,monospace"><text font-size="10" x="3" text-anchor="start" fill="black" font-family="sans-serif">br:BREWERIES</text></g><g class="detail padding" transform="translate(0, 66)" font-family="'Helvetica Neue',Helvetica,Arial,sans-serif"><text font-size="10" x="3" text-anchor="start" fill="black" font-family="sans-serif"/><path class="divider" visibility="visible" d="M 0 -6 L 220 -6" stroke="#DFE1E3"/></g><g class="detail order" transform="translate(0, 72)" font-family="'Helvetica Neue',Helvetica,Arial,sans-serif"><text font-size="10" x="3" text-anchor="start" fill="black" font-family="sans-serif">Ordered by abv DESC</text></g><g class="detail padding" transform="translate(0, 86)" font-family="'Helvetica Neue',Helvetica,Arial,sans-serif"><text font-size="10" x="3" text-anchor="start" fill="black" font-family="sans-serif"/><path class="divider" visibility="visible" d="M 0 -6 L 220 -6" stroke="#DFE1E3"/></g><g class="detail estimated-rows" transform="translate(0, 92)" font-family="'Helvetica Neue',Helvetica,Arial,sans-serif"><text font-size="10" x="110" text-anchor="end" fill="black" font-family="sans-serif">5 </text><text font-size="10" x="110" text-anchor="start" fill="black" font-family="sans-serif">estimated rows</text></g><g class="detail db-hits" transform="translate(0, 106)" font-family="'Helvetica Neue',Helvetica,Arial,sans-serif"><text font-size="10" x="110" text-anchor="end" fill="black" font-family="sans-serif">5 </text><text font-size="10" x="110" text-anchor="start" fill="black" font-family="sans-serif">db hits</text></g></g><g class="operator" transform="translate(0, -957.8411254882812)"><rect class="background" width="220" height="120.67827237631855" rx="4" ry="4" fill="rgb(255, 255, 255)"/><g class="header" pointer-events="all"><path class="banner" d="M 216 0 A 4 4 0 0 1 220 4 L 220 14 A 4 4 0 0 1 220 18 L 0 18 A 4 4 0 0 1 0 14 L 0 4 A 4 4 0 0 1 4 0 Z" style="fill: rgb(8, 81, 156);"/><path class="expand" fill="#FFFFFF" d="M -5 -10 L 8.66 0 L -5 10 Z" transform="translate(9, 9) rotate(90) scale(0.5,0.5)"/><text class="title" font-size="11" font-family="sans-serif" x="18" y="13" fill="#FFFFFF">Expand(All)@neo4j</text></g><path class="cost" fill="#F25A29" d="M 0 112 L 220 112 L 220 116.67827237631855 A 4 4 0 0 1 216 120.67827237631855 L 4 120.67827237631855 A 4 4 0 0 1 0 116.67827237631855 Z"/><rect class="outline" width="220" rx="4" ry="4" fill="none" stroke-width="1" style="stroke: rgb(6, 57, 109);" height="120.67827237631855"/><g class="detail identifiers" transform="translate(0, 32)" font-family="'Fira Code',Monaco,'Courier New',Terminal,monospace"><text font-size="10" x="3" text-anchor="start" fill="black" font-family="sans-serif">b, abv, anon_0, br</text></g><g class="detail padding" transform="translate(0, 46)" font-family="'Helvetica Neue',Helvetica,Arial,sans-serif"><text font-size="10" x="3" text-anchor="start" fill="black" font-family="sans-serif"/><path class="divider" visibility="visible" d="M 0 -6 L 220 -6" stroke="#DFE1E3"/></g><g class="detail expression" transform="translate(0, 52)" font-family="'Fira Code',Monaco,'Courier New',Terminal,monospace"><text font-size="10" x="3" text-anchor="start" fill="black" font-family="sans-serif">(b)&lt;-[anon_0:BREWED]-(br)</text></g><g class="detail padding" transform="translate(0, 66)" font-family="'Helvetica Neue',Helvetica,Arial,sans-serif"><text font-size="10" x="3" text-anchor="start" fill="black" font-family="sans-serif"/><path class="divider" visibility="visible" d="M 0 -6 L 220 -6" stroke="#DFE1E3"/></g><g class="detail order" transform="translate(0, 72)" font-family="'Helvetica Neue',Helvetica,Arial,sans-serif"><text font-size="10" x="3" text-anchor="start" fill="black" font-family="sans-serif">Ordered by abv DESC</text></g><g class="detail padding" transform="translate(0, 86)" font-family="'Helvetica Neue',Helvetica,Arial,sans-serif"><text font-size="10" x="3" text-anchor="start" fill="black" font-family="sans-serif"/><path class="divider" visibility="visible" d="M 0 -6 L 220 -6" stroke="#DFE1E3"/></g><g class="detail estimated-rows" transform="translate(0, 92)" font-family="'Helvetica Neue',Helvetica,Arial,sans-serif"><text font-size="10" x="110" text-anchor="end" fill="black" font-family="sans-serif">5 </text><text font-size="10" x="110" text-anchor="start" fill="black" font-family="sans-serif">estimated rows</text></g><g class="detail db-hits" transform="translate(0, 106)" font-family="'Helvetica Neue',Helvetica,Arial,sans-serif"><text font-size="10" x="110" text-anchor="end" fill="black" font-family="sans-serif">10 </text><text font-size="10" x="110" text-anchor="start" fill="black" font-family="sans-serif">db hits</text></g></g><g class="operator" transform="translate(0, -1133.8411865234375)"><rect class="background" width="220" height="126" rx="4" ry="4" fill="rgb(255, 255, 255)"/><g class="header" pointer-events="all"><path class="banner" d="M 216 0 A 4 4 0 0 1 220 4 L 220 14 A 4 4 0 0 1 220 18 L 0 18 A 4 4 0 0 1 0 14 L 0 4 A 4 4 0 0 1 4 0 Z" style="fill: rgb(107, 174, 214);"/><path class="expand" fill="#FFFFFF" d="M -5 -10 L 8.66 0 L -5 10 Z" transform="translate(9, 9) rotate(90) scale(0.5,0.5)"/><text class="title" font-size="11" font-family="sans-serif" x="18" y="13" fill="#FFFFFF">Sort@neo4j</text></g><path class="cost" fill="#F25A29" d="M 216 126 A 4 4 0 0 1 216 126 L 4 126 A 4 4 0 0 1 4 126 Z"/><rect class="outline" width="220" rx="4" ry="4" fill="none" stroke-width="1" style="stroke: rgb(75, 122, 150);" height="126"/><g class="detail identifiers" transform="translate(0, 32)" font-family="'Fira Code',Monaco,'Courier New',Terminal,monospace"><text font-size="10" x="3" text-anchor="start" fill="black" font-family="sans-serif">b, abv</text></g><g class="detail padding" transform="translate(0, 46)" font-family="'Helvetica Neue',Helvetica,Arial,sans-serif"><text font-size="10" x="3" text-anchor="start" fill="black" font-family="sans-serif"/><path class="divider" visibility="visible" d="M 0 -6 L 220 -6" stroke="#DFE1E3"/></g><g class="detail expression" transform="translate(0, 52)" font-family="'Fira Code',Monaco,'Courier New',Terminal,monospace"><text font-size="10" x="3" text-anchor="start" fill="black" font-family="sans-serif">abv DESC</text></g><g class="detail padding" transform="translate(0, 66)" font-family="'Helvetica Neue',Helvetica,Arial,sans-serif"><text font-size="10" x="3" text-anchor="start" fill="black" font-family="sans-serif"/><path class="divider" visibility="visible" d="M 0 -6 L 220 -6" stroke="#DFE1E3"/></g><g class="detail order" transform="translate(0, 72)" font-family="'Helvetica Neue',Helvetica,Arial,sans-serif"><text font-size="10" x="3" text-anchor="start" fill="black" font-family="sans-serif">Ordered by abv DESC</text></g><g class="detail padding" transform="translate(0, 86)" font-family="'Helvetica Neue',Helvetica,Arial,sans-serif"><text font-size="10" x="3" text-anchor="start" fill="black" font-family="sans-serif"/><path class="divider" visibility="visible" d="M 0 -6 L 220 -6" stroke="#DFE1E3"/></g><g class="detail operator-memory" transform="translate(0, 92)" font-family="'Helvetica Neue',Helvetica,Arial,sans-serif"><text font-size="10" x="110" text-anchor="end" fill="black" font-family="sans-serif">88 572 800 </text><text font-size="10" x="110" text-anchor="start" fill="black" font-family="sans-serif">memory (bytes)</text></g><g class="detail estimated-rows" transform="translate(0, 106)" font-family="'Helvetica Neue',Helvetica,Arial,sans-serif"><text font-size="10" x="110" text-anchor="end" fill="black" font-family="sans-serif">5 </text><text font-size="10" x="110" text-anchor="start" fill="black" font-family="sans-serif">estimated rows</text></g><g class="detail db-hits" transform="translate(0, 120)" font-family="'Helvetica Neue',Helvetica,Arial,sans-serif"><text font-size="10" x="110" text-anchor="end" fill="black" font-family="sans-serif">0 </text><text font-size="10" x="110" text-anchor="start" fill="black" font-family="sans-serif">db hits</text></g></g><g class="operator" transform="translate(0, -1275.8411865234375)"><rect class="background" width="220" height="92" rx="4" ry="4" fill="rgb(255, 255, 255)"/><g class="header" pointer-events="all"><path class="banner" d="M 216 0 A 4 4 0 0 1 220 4 L 220 14 A 4 4 0 0 1 220 18 L 0 18 A 4 4 0 0 1 0 14 L 0 4 A 4 4 0 0 1 4 0 Z" style="fill: rgb(107, 174, 214);"/><path class="expand" fill="#FFFFFF" d="M -5 -10 L 8.66 0 L -5 10 Z" transform="translate(9, 9) rotate(90) scale(0.5,0.5)"/><text class="title" font-size="11" font-family="sans-serif" x="18" y="13" fill="#FFFFFF">Projection@neo4j</text></g><path class="cost" fill="#F25A29" d="M 216 92 A 4 4 0 0 1 216 92 L 4 92 A 4 4 0 0 1 4 92 Z"/><rect class="outline" width="220" rx="4" ry="4" fill="none" stroke-width="1" style="stroke: rgb(75, 122, 150);" height="92"/><g class="detail identifiers" transform="translate(0, 32)" font-family="'Fira Code',Monaco,'Courier New',Terminal,monospace"><text font-size="10" x="3" text-anchor="start" fill="black" font-family="sans-serif">b, abv</text></g><g class="detail padding" transform="translate(0, 46)" font-family="'Helvetica Neue',Helvetica,Arial,sans-serif"><text font-size="10" x="3" text-anchor="start" fill="black" font-family="sans-serif"/><path class="divider" visibility="visible" d="M 0 -6 L 220 -6" stroke="#DFE1E3"/></g><g class="detail expression" transform="translate(0, 52)" font-family="'Fira Code',Monaco,'Courier New',Terminal,monospace"><text font-size="10" x="3" text-anchor="start" fill="black" font-family="sans-serif">cache[b.abv] AS abv</text></g><g class="detail padding" transform="translate(0, 66)" font-family="'Helvetica Neue',Helvetica,Arial,sans-serif"><text font-size="10" x="3" text-anchor="start" fill="black" font-family="sans-serif"/><path class="divider" visibility="visible" d="M 0 -6 L 220 -6" stroke="#DFE1E3"/></g><g class="detail estimated-rows" transform="translate(0, 72)" font-family="'Helvetica Neue',Helvetica,Arial,sans-serif"><text font-size="10" x="110" text-anchor="end" fill="black" font-family="sans-serif">44 859 </text><text font-size="10" x="110" text-anchor="start" fill="black" font-family="sans-serif">estimated rows</text></g><g class="detail db-hits" transform="translate(0, 86)" font-family="'Helvetica Neue',Helvetica,Arial,sans-serif"><text font-size="10" x="110" text-anchor="end" fill="black" font-family="sans-serif">0 </text><text font-size="10" x="110" text-anchor="start" fill="black" font-family="sans-serif">db hits</text></g></g><g class="operator" transform="translate(0, -1478.13232421875)"><rect class="background" width="220" height="152.29114295571608" rx="4" ry="4" fill="rgb(255, 255, 255)"/><g class="header" pointer-events="all"><path class="banner" d="M 216 0 A 4 4 0 0 1 220 4 L 220 14 A 4 4 0 0 1 220 18 L 0 18 A 4 4 0 0 1 0 14 L 0 4 A 4 4 0 0 1 4 0 Z" style="fill: rgb(33, 113, 181);"/><path class="expand" fill="#FFFFFF" d="M -5 -10 L 8.66 0 L -5 10 Z" transform="translate(9, 9) rotate(90) scale(0.5,0.5)"/><text class="title" font-size="11" font-family="sans-serif" x="18" y="13" fill="#FFFFFF">Filter@neo4j</text></g><path class="cost" fill="#F25A29" d="M 0 106 L 220 106 L 220 148.29114295571608 A 4 4 0 0 1 216 152.29114295571608 L 4 152.29114295571608 A 4 4 0 0 1 0 148.29114295571608 Z"/><text class="cost" font-size="10" font-family="sans-serif" fill="white" x="110" text-anchor="end" y="120">358 869 </text><text class="cost" font-size="10" font-family="sans-serif" fill="white" x="110" text-anchor="start" y="120">db hits</text><rect class="outline" width="220" rx="4" ry="4" fill="none" stroke-width="1" style="stroke: rgb(23, 79, 127);" height="152.29114295571608"/><g class="detail identifiers" transform="translate(0, 32)" font-family="'Fira Code',Monaco,'Courier New',Terminal,monospace"><text font-size="10" x="3" text-anchor="start" fill="black" font-family="sans-serif">b</text></g><g class="detail padding" transform="translate(0, 46)" font-family="'Helvetica Neue',Helvetica,Arial,sans-serif"><text font-size="10" x="3" text-anchor="start" fill="black" font-family="sans-serif"/><path class="divider" visibility="visible" d="M 0 -6 L 220 -6" stroke="#DFE1E3"/></g><g class="detail expression" transform="translate(0, 52)" font-family="'Fira Code',Monaco,'Courier New',Terminal,monospace"><text font-size="10" x="3" text-anchor="start" fill="black" font-family="sans-serif">cache[b.abv] &lt;= $autodouble_1 AND </text></g><g class="detail expression" transform="translate(0, 66)" font-family="'Fira Code',Monaco,'Courier New',Terminal,monospace"><text font-size="10" x="3" text-anchor="start" fill="black" font-family="sans-serif">cache[b.abv] &gt; $autoint_0 AND cache</text></g><g class="detail expression" transform="translate(0, 80)" font-family="'Fira Code',Monaco,'Courier New',Terminal,monospace"><text font-size="10" x="3" text-anchor="start" fill="black" font-family="sans-serif">[b.abv] IS NOT NULL</text></g><g class="detail padding" transform="translate(0, 94)" font-family="'Helvetica Neue',Helvetica,Arial,sans-serif"><text font-size="10" x="3" text-anchor="start" fill="black" font-family="sans-serif"/><path class="divider" visibility="visible" d="M 0 -6 L 220 -6" stroke="#DFE1E3"/></g><g class="detail estimated-rows" transform="translate(0, 100)" font-family="'Helvetica Neue',Helvetica,Arial,sans-serif"><text font-size="10" x="110" text-anchor="end" fill="black" font-family="sans-serif">44 859 </text><text font-size="10" x="110" text-anchor="start" fill="black" font-family="sans-serif">estimated rows</text></g></g><g class="operator" transform="translate(0, -1652.4234619140625)"><rect class="background" width="220" height="124.29115304047002" rx="4" ry="4" fill="rgb(255, 255, 255)"/><g class="header" pointer-events="all"><path class="banner" d="M 216 0 A 4 4 0 0 1 220 4 L 220 14 A 4 4 0 0 1 220 18 L 0 18 A 4 4 0 0 1 0 14 L 0 4 A 4 4 0 0 1 4 0 Z" style="fill: rgb(158, 202, 225);"/><path class="expand" fill="#000000" d="M -5 -10 L 8.66 0 L -5 10 Z" transform="translate(9, 9) rotate(90) scale(0.5,0.5)"/><text class="title" font-size="11" font-family="sans-serif" x="18" y="13" fill="#000000">NodeByLabelScan@neo4j</text></g><path class="cost" fill="#F25A29" d="M 0 78 L 220 78 L 220 120.29115304047002 A 4 4 0 0 1 216 124.29115304047002 L 4 124.29115304047002 A 4 4 0 0 1 0 120.29115304047002 Z"/><text class="cost" font-size="10" font-family="sans-serif" fill="white" x="110" text-anchor="end" y="92">358 870 </text><text class="cost" font-size="10" font-family="sans-serif" fill="white" x="110" text-anchor="start" y="92">db hits</text><rect class="outline" width="220" rx="4" ry="4" fill="none" stroke-width="1" style="stroke: rgb(111, 141, 158);" height="124.29115304047002"/><g class="detail identifiers" transform="translate(0, 32)" font-family="'Fira Code',Monaco,'Courier New',Terminal,monospace"><text font-size="10" x="3" text-anchor="start" fill="black" font-family="sans-serif">b</text></g><g class="detail padding" transform="translate(0, 46)" font-family="'Helvetica Neue',Helvetica,Arial,sans-serif"><text font-size="10" x="3" text-anchor="start" fill="black" font-family="sans-serif"/><path class="divider" visibility="visible" d="M 0 -6 L 220 -6" stroke="#DFE1E3"/></g><g class="detail expression" transform="translate(0, 52)" font-family="'Fira Code',Monaco,'Courier New',Terminal,monospace"><text font-size="10" x="3" text-anchor="start" fill="black" font-family="sans-serif">b:BEERS</text></g><g class="detail padding" transform="translate(0, 66)" font-family="'Helvetica Neue',Helvetica,Arial,sans-serif"><text font-size="10" x="3" text-anchor="start" fill="black" font-family="sans-serif"/><path class="divider" visibility="visible" d="M 0 -6 L 220 -6" stroke="#DFE1E3"/></g><g class="detail estimated-rows" transform="translate(0, 72)" font-family="'Helvetica Neue',Helvetica,Arial,sans-serif"><text font-size="10" x="110" text-anchor="end" fill="black" font-family="sans-serif">358 869 </text><text font-size="10" x="110" text-anchor="start" fill="black" font-family="sans-serif">estimated rows</text></g></g></g></svg>