<svg xmlns="http://www.w3.org/2000/svg" width="882.7423706054688" height="348.78717041015625" viewBox="-428.1062927246094 -397.4231262207031 882.7423706054688 348.78717041015625"><title>Neo4j Graph Visualization</title><desc>Created using Neo4j (http://www.neo4j.com/)</desc><g class="layer relationships"><g class="relationship" transform="translate(208.77470574297107 -99.37366659426904) rotate(268.7666615310163)"><path class="outline" fill="#F79767" stroke="none" d="M 40 2.5 L 66.79591303052925 2.5 L 66.79591303052925 -2.5 L 40 -2.5 Z M 115.46778803052925 2.5 L 142.2637010610585 2.5 L 142.2637010610585 5.5 L 153.2637010610585 0 L 142.2637010610585 -5.5 L 142.2637010610585 -2.5 L 115.46778803052925 -2.5 Z"/><text text-anchor="middle" pointer-events="none" font-size="8px" fill="#000000" x="91.13185053052925" y="3" transform="rotate(180 91.13185053052925 0)" font-family="sans-serif">REVIEWED</text></g><g class="relationship" transform="translate(12.780146448822066 -97.18166334288432) rotate(359.35923068793886)"><path class="outline" fill="#569480" stroke="none" d="M 40 2.5 L 71.94676767180587 2.5 L 71.94676767180587 -2.5 L 40 -2.5 Z M 113.06004892180587 2.5 L 145.00681659361175 2.5 L 145.00681659361175 5.5 L 156.00681659361175 0 L 145.00681659361175 -5.5 L 145.00681659361175 -2.5 L 113.06004892180587 -2.5 Z"/><text text-anchor="middle" pointer-events="none" font-size="8px" fill="#000000" x="92.50340829680587" y="3" font-family="sans-serif">BREWED</text></g><g class="relationship" transform="translate(12.780146448822066 -97.18166334288432) rotate(539.1135130435637)"><path class="outline" fill="#57C7E3" stroke="none" d="M 40 2.5 L 83.88470837095583 2.5 L 83.88470837095583 -2.5 L 40 -2.5 Z M 97.88470837095583 2.5 L 141.76941674191167 2.5 L 141.76941674191167 5.5 L 152.76941674191167 0 L 141.76941674191167 -5.5 L 141.76941674191167 -2.5 L 97.88470837095583 -2.5 Z"/><text text-anchor="middle" pointer-events="none" font-size="8px" fill="#000000" x="90.88470837095583" y="3" transform="rotate(180 90.88470837095583 0)" font-family="sans-serif">IN</text></g><g class="relationship" transform="translate(410.6360700701337 -97.7766952640529) rotate(180.45327053390128)"><path class="outline" fill="#F16667" stroke="none" d="M 40 2.5 L 79.17407499034196 2.5 L 79.17407499034196 -2.5 L 40 -2.5 Z M 111.69360624034196 2.5 L 150.86768123068393 2.5 L 150.86768123068393 5.5 L 161.86768123068393 0 L 150.86768123068393 -5.5 L 150.86768123068393 -2.5 L 111.69360624034196 -2.5 Z"/><text text-anchor="middle" pointer-events="none" font-size="8px" fill="#000000" x="95.43384061534196" y="3" transform="rotate(180 95.43384061534196 0)" font-family="sans-serif">RATED</text></g><g class="relationship" transform="translate(-179.96619756707588 -94.1992315294225) rotate(539.5612471288454)"><path class="outline" fill="#4C8EDA" stroke="none" d="M 40 2.5 L 66.52616859968006 2.5 L 66.52616859968006 -2.5 L 40 -2.5 Z M 126.61991859968006 2.5 L 153.14608719936012 2.5 L 153.14608719936012 5.5 L 164.14608719936012 0 L 153.14608719936012 -5.5 L 153.14608719936012 -2.5 L 126.61991859968006 -2.5 Z"/><text text-anchor="middle" pointer-events="none" font-size="8px" fill="#000000" x="96.57304359968006" y="3" transform="rotate(180 96.57304359968006 0)" font-family="sans-serif">BELONGS_TO</text></g></g><g class="layer nodes"><g class="node" aria-label="graph-node-26" transform="translate(204.61486793497104,-292.59259397259115)" style="touch-action: none; -webkit-tap-highlight-color: rgba(0, 0, 0, 0);"><circle class="outline" cx="0" cy="0" r="40" fill="#F79767" stroke="#f36924" stroke-width="2px"/><text class="caption" text-anchor="middle" pointer-events="none" x="0" y="5" font-size="10px" fill="#FFFFFF" font-family="sans-serif"> REVIEWS</text></g><g class="node" aria-label="graph-node-25" transform="translate(208.77470574297107,-99.37366659426904)" style="touch-action: none; -webkit-tap-highlight-color: rgba(0, 0, 0, 0);"><circle class="outline" cx="0" cy="0" r="40" fill="#FFC454" stroke="#d7a013" stroke-width="2px"/><text class="caption" text-anchor="middle" pointer-events="none" x="0" y="5" font-size="10px" fill="#2A2C34" font-family="sans-serif"> BEERS</text></g><g class="node" aria-label="graph-node-22" transform="translate(-384.1062992225342,-92.63596094890762)" style="touch-action: none; -webkit-tap-highlight-color: rgba(0, 0, 0, 0);"><circle class="outline" cx="0" cy="0" r="40" fill="#57C7E3" stroke="#23b3d7" stroke-width="2px"/><text class="caption" text-anchor="middle" pointer-events="none" x="0" y="5" font-size="10px" fill="#2A2C34" font-family="sans-serif"> COUNTRIES</text></g><g class="node" aria-label="graph-node-24" transform="translate(12.780146448822066,-97.18166334288432)" style="touch-action: none; -webkit-tap-highlight-color: rgba(0, 0, 0, 0);"><circle class="outline" cx="0" cy="0" r="40" fill="#569480" stroke="#447666" stroke-width="2px"/><text class="caption" text-anchor="middle" pointer-events="none" x="0" y="5" font-size="10px" fill="#FFFFFF" font-family="sans-serif"> BREWERIES</text></g><g class="node" aria-label="graph-node-27" transform="translate(200.55203592059993,-353.42312807832513)" style="touch-action: none; -webkit-tap-highlight-color: rgba(0, 0, 0, 0);"><circle class="outline" cx="0" cy="0" r="40" fill="#D9C8AE" stroke="#c0a378" stroke-width="2px"/><text class="caption" text-anchor="middle" pointer-events="none" x="0" y="5" font-size="10px" fill="#2A2C34" font-family="sans-serif"> STYLE</text></g><g class="node" aria-label="graph-node-23" transform="translate(-179.96619756707588,-94.1992315294225)" style="touch-action: none; -webkit-tap-highlight-color: rgba(0, 0, 0, 0);"><circle class="outline" cx="0" cy="0" r="40" fill="#4C8EDA" stroke="#2870c2" stroke-width="2px"/><text class="caption" text-anchor="middle" pointer-events="none" x="0" y="5" font-size="10px" fill="#FFFFFF" font-family="sans-serif"> CITIES</text></g><g class="node" aria-label="graph-node-28" transform="translate(410.6360700701337,-97.7766952640529)" style="touch-action: none; -webkit-tap-highlight-color: rgba(0, 0, 0, 0);"><circle class="outline" cx="0" cy="0" r="40" fill="#F16667" stroke="#eb2728" stroke-width="2px"/><text class="caption" text-anchor="middle" pointer-events="none" x="0" y="5" font-size="10px" fill="#FFFFFF" font-family="sans-serif"> USER</text></g></g></svg>