<svg xmlns="http://www.w3.org/2000/svg" width="821.7886962890625" height="542.3919677734375" viewBox="-275.0831298828125 -321.466552734375 821.7886962890625 542.3919677734375"><title>Neo4j Graph Visualization</title><desc>Created using Neo4j (http://www.neo4j.com/)</desc><g class="layer relationships"><g class="relationship" transform="translate(16.73653974913924 -49.665972073890885) rotate(180.56550549644186)"><path class="outline" fill="#57C7E3" stroke="none" d="M 40 2.5 L 92.5956510884771 2.5 L 92.5956510884771 -2.5 L 40 -2.5 Z M 148.2362760884771 2.5 L 200.8319271769542 2.5 L 200.8319271769542 5.5 L 211.8319271769542 0 L 200.8319271769542 -5.5 L 200.8319271769542 -2.5 L 148.2362760884771 -2.5 Z"/><text text-anchor="middle" pointer-events="none" font-size="8px" fill="#000000" x="120.4159635884771" y="3" transform="rotate(180 120.4159635884771 0)" font-family="sans-serif">LOCATED_IN</text></g><g class="relationship" transform="translate(252.82071648063177 -50.24436015629806) rotate(359.54378629515645)"><path class="outline" fill="#F79767" stroke="none" d="M 40 2.5 L 97.11051323234805 2.5 L 97.11051323234805 -2.5 L 40 -2.5 Z M 145.78238823234807 2.5 L 202.8929014646961 2.5 L 202.8929014646961 5.5 L 213.8929014646961 0 L 202.8929014646961 -5.5 L 202.8929014646961 -2.5 L 145.78238823234807 -2.5 Z"/><text text-anchor="middle" pointer-events="none" font-size="8px" fill="#000000" x="121.44645073234805" y="3" font-family="sans-serif">REVIEWED</text></g><g class="relationship" transform="translate(16.73653974913924 -49.665972073890885) rotate(359.8596300260365)"><path class="outline" fill="#569480" stroke="none" d="M 40 2.5 L 91.9858019917983 2.5 L 91.9858019917983 -2.5 L 40 -2.5 Z M 133.0990832417983 2.5 L 185.0848852335966 2.5 L 185.0848852335966 5.5 L 196.0848852335966 0 L 185.0848852335966 -5.5 L 185.0848852335966 -2.5 L 133.0990832417983 -2.5 Z"/><text text-anchor="middle" pointer-events="none" font-size="8px" fill="#000000" x="112.5424426167983" y="3" font-family="sans-serif">BREWED</text></g><g class="relationship" transform="translate(16.73653974913924 -49.665972073890885) rotate(242.28464078461178)"><path class="outline" fill="#57C7E3" stroke="none" d="M 40 2.5 L 113.20033616055137 2.5 L 113.20033616055137 -2.5 L 40 -2.5 Z M 127.20033616055137 2.5 L 200.40067232110275 2.5 L 200.40067232110275 5.5 L 211.40067232110275 0 L 200.40067232110275 -5.5 L 200.40067232110275 -2.5 L 127.20033616055137 -2.5 Z"/><text text-anchor="middle" pointer-events="none" font-size="8px" fill="#000000" x="120.20033616055137" y="3" transform="rotate(180 120.20033616055137 0)" font-family="sans-serif">IN</text></g><g class="relationship" transform="translate(379.49900386140445 180.92539967157776) rotate(241.27778118180078)"><path class="outline" fill="#F16667" stroke="none" d="M 40 2.5 L 110.04202339226202 2.5 L 110.04202339226202 -2.5 L 40 -2.5 Z M 142.56155464226202 2.5 L 212.60357803452405 2.5 L 212.60357803452405 5.5 L 223.60357803452405 0 L 212.60357803452405 -5.5 L 212.60357803452405 -2.5 L 142.56155464226202 -2.5 Z"/><text text-anchor="middle" pointer-events="none" font-size="8px" fill="#000000" x="126.30178901726202" y="3" transform="rotate(180 126.30178901726202 0)" font-family="sans-serif">RATED</text></g><g class="relationship" transform="translate(-100.18472793337429 -272.22318990116446) rotate(481.50724594905694)"><path class="outline" fill="#4C8EDA" stroke="none" d="M 40 2.5 L 93.5162171625962 2.5 L 93.5162171625962 -2.5 L 40 -2.5 Z M 153.6099671625962 2.5 L 207.1261843251924 2.5 L 207.1261843251924 5.5 L 218.1261843251924 0 L 207.1261843251924 -5.5 L 207.1261843251924 -2.5 L 153.6099671625962 -2.5 Z"/><text text-anchor="middle" pointer-events="none" font-size="8px" fill="#000000" x="123.5630921625962" y="3" transform="rotate(180 123.5630921625962 0)" font-family="sans-serif">BELONGS_TO</text></g><g class="relationship" transform="translate(252.82071648063177 -50.24436015629806) rotate(270.7061464220078)"><path class="outline" fill="#FFC454" stroke="none" d="M 40 2.5 L 83.99878931692258 2.5 L 83.99878931692258 -2.5 L 40 -2.5 Z M 136.24097681692257 2.5 L 180.23976613384517 2.5 L 180.23976613384517 5.5 L 191.23976613384517 0 L 180.23976613384517 -5.5 L 180.23976613384517 -2.5 L 136.24097681692257 -2.5 Z"/><text text-anchor="middle" pointer-events="none" font-size="8px" fill="#000000" x="110.11988306692258" y="3" font-family="sans-serif">HAS_STYLE</text></g><g class="relationship" transform="translate(506.70556954335734 -52.265943565442925) rotate(478.6125970712492)"><path class="outline" fill="#F79767" stroke="none" d="M 40 2.5 L 107.86812590896625 2.5 L 107.86812590896625 -2.5 L 40 -2.5 Z M 146.76265715896625 2.5 L 214.6307830679325 2.5 L 214.6307830679325 5.5 L 225.6307830679325 0 L 214.6307830679325 -5.5 L 214.6307830679325 -2.5 L 146.76265715896625 -2.5 Z"/><text text-anchor="middle" pointer-events="none" font-size="8px" fill="#000000" x="127.31539153396625" y="3" transform="rotate(180 127.31539153396625 0)" font-family="sans-serif">POSTED</text></g></g><g class="layer nodes"><g class="node" aria-label="graph-node-152" transform="translate(506.70556954335734,-52.265943565442925)" style="touch-action: none; -webkit-tap-highlight-color: rgba(0, 0, 0, 0);"><circle class="outline" cx="0" cy="0" r="40" fill="#F79767" stroke="#f36924" stroke-width="2px"/><text class="caption" text-anchor="middle" pointer-events="none" x="0" y="5" font-size="10px" fill="#FFFFFF" font-family="sans-serif"> REVIEWS</text></g><g class="node" aria-label="graph-node-151" transform="translate(252.82071648063177,-50.24436015629806)" style="touch-action: none; -webkit-tap-highlight-color: rgba(0, 0, 0, 0);"><circle class="outline" cx="0" cy="0" r="40" fill="#FFC454" stroke="#d7a013" stroke-width="2px"/><text class="caption" text-anchor="middle" pointer-events="none" x="0" y="5" font-size="10px" fill="#2A2C34" font-family="sans-serif"> BEERS</text></g><g class="node" aria-label="graph-node-148" transform="translate(-235.08312135146133,-52.15149592962659)" style="touch-action: none; -webkit-tap-highlight-color: rgba(0, 0, 0, 0);"><circle class="outline" cx="0" cy="0" r="40" fill="#57C7E3" stroke="#23b3d7" stroke-width="2px"/><text class="caption" text-anchor="middle" pointer-events="none" x="0" y="5" font-size="10px" fill="#2A2C34" font-family="sans-serif"> COUNTRIES</text></g><g class="node" aria-label="graph-node-150" transform="translate(16.73653974913924,-49.665972073890885)" style="touch-action: none; -webkit-tap-highlight-color: rgba(0, 0, 0, 0);"><circle class="outline" cx="0" cy="0" r="40" fill="#569480" stroke="#447666" stroke-width="2px"/><text class="caption" text-anchor="middle" pointer-events="none" x="0" y="5" font-size="10px" fill="#FFFFFF" font-family="sans-serif"> BREWERIES</text></g><g class="node" aria-label="graph-node-153" transform="translate(255.67057734459837,-281.466564398649)" style="touch-action: none; -webkit-tap-highlight-color: rgba(0, 0, 0, 0);"><circle class="outline" cx="0" cy="0" r="40" fill="#D9C8AE" stroke="#c0a378" stroke-width="2px"/><text class="caption" text-anchor="middle" pointer-events="none" x="0" y="5" font-size="10px" fill="#2A2C34" font-family="sans-serif"> STYLE</text></g><g class="node" aria-label="graph-node-149" transform="translate(-100.18472793337429,-272.22318990116446)" style="touch-action: none; -webkit-tap-highlight-color: rgba(0, 0, 0, 0);"><circle class="outline" cx="0" cy="0" r="40" fill="#4C8EDA" stroke="#2870c2" stroke-width="2px"/><text class="caption" text-anchor="middle" pointer-events="none" x="0" y="5" font-size="10px" fill="#FFFFFF" font-family="sans-serif"> CITIES</text></g><g class="node" aria-label="graph-node-154" transform="translate(379.49900386140445,180.92539967157776)" style="touch-action: none; -webkit-tap-highlight-color: rgba(0, 0, 0, 0);"><circle class="outline" cx="0" cy="0" r="40" fill="#F16667" stroke="#eb2728" stroke-width="2px"/><text class="caption" text-anchor="middle" pointer-events="none" x="0" y="5" font-size="10px" fill="#FFFFFF" font-family="sans-serif"> USER</text></g></g></svg>