<svg xmlns="http://www.w3.org/2000/svg" width="893.7457275390625" height="364.8218994140625" viewBox="-668.255615234375 -218.52615356445312 893.7457275390625 364.8218994140625"><title>Neo4j Graph Visualization</title><desc>Created using Neo4j (http://www.neo4j.com/)</desc><g class="layer relationships"><g class="relationship" transform="translate(-18.12063788920186 2.6326347269448114) rotate(271.4869261293524)"><path class="outline" fill="#F79767" stroke="none" d="M 40 2.5 L 58.77329363371632 2.5 L 58.77329363371632 -2.5 L 40 -2.5 Z M 107.44516863371632 2.5 L 126.21846226743264 2.5 L 126.21846226743264 5.5 L 137.21846226743264 0 L 126.21846226743264 -5.5 L 126.21846226743264 -2.5 L 107.44516863371632 -2.5 Z"/><text text-anchor="middle" pointer-events="none" font-size="8px" fill="#000000" x="83.10923113371632" y="3" font-family="sans-serif">REVIEWED</text></g><g class="relationship" transform="translate(-206.81619050285005 2.2325534512383225) rotate(360.12148105184826)"><path class="outline" fill="#569480" stroke="none" d="M 40 2.5 L 68.291347749418 2.5 L 68.291347749418 -2.5 L 40 -2.5 Z M 109.404628999418 2.5 L 137.695976748836 2.5 L 137.695976748836 5.5 L 148.695976748836 0 L 137.695976748836 -5.5 L 137.695976748836 -2.5 L 109.404628999418 -2.5 Z"/><text text-anchor="middle" pointer-events="none" font-size="8px" fill="#000000" x="88.847988374418" y="3" font-family="sans-serif">BREWED</text></g><g class="relationship" transform="translate(-206.81619050285005 2.2325534512383225) rotate(539.6963214358736)"><path class="outline" fill="#57C7E3" stroke="none" d="M 40 2.5 L 89.97354940555604 2.5 L 89.97354940555604 -2.5 L 40 -2.5 Z M 103.97354940555604 2.5 L 153.94709881111208 2.5 L 153.94709881111208 5.5 L 164.94709881111208 0 L 153.94709881111208 -5.5 L 153.94709881111208 -2.5 L 103.97354940555604 -2.5 Z"/><text text-anchor="middle" pointer-events="none" font-size="8px" fill="#000000" x="96.97354940555604" y="3" transform="rotate(180 96.97354940555604 0)" font-family="sans-serif">IN</text></g><g class="relationship" transform="translate(181.49010215496105 -110.61758507149665) rotate(510.43135911121766)"><path class="outline" fill="#F16667" stroke="none" d="M 40 2.5 L 92.9900272129107 2.5 L 92.9900272129107 -2.5 L 40 -2.5 Z M 125.5095584629107 2.5 L 178.4995856758214 2.5 L 178.4995856758214 5.5 L 189.4995856758214 0 L 178.4995856758214 -5.5 L 178.4995856758214 -2.5 L 125.5095584629107 -2.5 Z"/><text text-anchor="middle" pointer-events="none" font-size="8px" fill="#000000" x="109.2497928379107" y="3" transform="rotate(180 109.2497928379107 0)" font-family="sans-serif">RATED</text></g><g class="relationship" transform="translate(-411.76041063143117 3.318807095388344) rotate(182.0443869169738)"><path class="outline" fill="#4C8EDA" stroke="none" d="M 40 2.5 L 70.76841208545355 2.5 L 70.76841208545355 -2.5 L 40 -2.5 Z M 130.86216208545355 2.5 L 161.6305741709071 2.5 L 161.6305741709071 5.5 L 172.6305741709071 0 L 161.6305741709071 -5.5 L 161.6305741709071 -2.5 L 130.86216208545355 -2.5 Z"/><text text-anchor="middle" pointer-events="none" font-size="8px" fill="#000000" x="100.81528708545355" y="3" transform="rotate(180 100.81528708545355 0)" font-family="sans-serif">BELONGS_TO</text></g><g class="relationship" transform="translate(-18.12063788920186 2.6326347269448114) rotate(387.1402833126451)"><path class="outline" fill="#FFC454" stroke="none" d="M 40 2.5 L 77.6177316252142 2.5 L 77.6177316252142 -2.5 L 40 -2.5 Z M 129.85991912521422 2.5 L 167.4776507504284 2.5 L 167.4776507504284 5.5 L 178.4776507504284 0 L 167.4776507504284 -5.5 L 167.4776507504284 -2.5 L 129.85991912521422 -2.5 Z"/><text text-anchor="middle" pointer-events="none" font-size="8px" fill="#000000" x="103.7388253752142" y="3" font-family="sans-serif">HAS_STYLE</text></g></g><g class="layer nodes"><g class="node" aria-label="graph-node-19" transform="translate(-13.522023705417197,-174.52615313304858)" style="touch-action: none; -webkit-tap-highlight-color: rgba(0, 0, 0, 0);"><circle class="outline" cx="0" cy="0" r="40" fill="#F79767" stroke="#f36924" stroke-width="2px"/><text class="caption" text-anchor="middle" pointer-events="none" x="0" y="5" font-size="10px" fill="#FFFFFF" font-family="sans-serif"> REVIEWS</text></g><g class="node" aria-label="graph-node-18" transform="translate(-18.12063788920186,2.6326347269448114)" style="touch-action: none; -webkit-tap-highlight-color: rgba(0, 0, 0, 0);"><circle class="outline" cx="0" cy="0" r="40" fill="#FFC454" stroke="#d7a013" stroke-width="2px"/><text class="caption" text-anchor="middle" pointer-events="none" x="0" y="5" font-size="10px" fill="#2A2C34" font-family="sans-serif"> BEERS</text></g><g class="node" aria-label="graph-node-15" transform="translate(-624.2556434349258,-4.266514785603462)" style="touch-action: none; -webkit-tap-highlight-color: rgba(0, 0, 0, 0);"><circle class="outline" cx="0" cy="0" r="40" fill="#57C7E3" stroke="#23b3d7" stroke-width="2px"/><text class="caption" text-anchor="middle" pointer-events="none" x="0" y="5" font-size="10px" fill="#2A2C34" font-family="sans-serif"> COUNTRIES</text></g><g class="node" aria-label="graph-node-17" transform="translate(-206.81619050285005,2.2325534512383225)" style="touch-action: none; -webkit-tap-highlight-color: rgba(0, 0, 0, 0);"><circle class="outline" cx="0" cy="0" r="40" fill="#569480" stroke="#447666" stroke-width="2px"/><text class="caption" text-anchor="middle" pointer-events="none" x="0" y="5" font-size="10px" fill="#FFFFFF" font-family="sans-serif"> BREWERIES</text></g><g class="node" aria-label="graph-node-20" transform="translate(176.30094161208447,102.29573372377101)" style="touch-action: none; -webkit-tap-highlight-color: rgba(0, 0, 0, 0);"><circle class="outline" cx="0" cy="0" r="40" fill="#D9C8AE" stroke="#c0a378" stroke-width="2px"/><text class="caption" text-anchor="middle" pointer-events="none" x="0" y="5" font-size="10px" fill="#2A2C34" font-family="sans-serif"> STYLE</text></g><g class="node" aria-label="graph-node-16" transform="translate(-411.76041063143117,3.318807095388344)" style="touch-action: none; -webkit-tap-highlight-color: rgba(0, 0, 0, 0);"><circle class="outline" cx="0" cy="0" r="40" fill="#4C8EDA" stroke="#2870c2" stroke-width="2px"/><text class="caption" text-anchor="middle" pointer-events="none" x="0" y="5" font-size="10px" fill="#FFFFFF" font-family="sans-serif"> CITIES</text></g><g class="node" aria-label="graph-node-21" transform="translate(181.49010215496105,-110.61758507149665)" style="touch-action: none; -webkit-tap-highlight-color: rgba(0, 0, 0, 0);"><circle class="outline" cx="0" cy="0" r="40" fill="#F16667" stroke="#eb2728" stroke-width="2px"/><text class="caption" text-anchor="middle" pointer-events="none" x="0" y="5" font-size="10px" fill="#FFFFFF" font-family="sans-serif"> USER</text></g></g></svg>