<svg xmlns="http://www.w3.org/2000/svg" width="221.07180786132812" height="1544.546875" viewBox="-0.5358984470367432 -1594.546875 221.07180786132812 1544.546875"><title>Neo4j Graph Visualization</title><desc>Created using Neo4j (http://www.neo4j.com/)</desc><g class="layer links"><g class="link"><path fill="#DFE1E3" d="M 113.60892662908783 -1484.570833930659 C 113.60892662908783 -1461.86834797976 113.60892662908785 -1461.86834797976 113.60892662908785 -1434.5708339306589 L 106.39107337091217 -1434.5708339306589 C 106.39107337091217 -1457.2733198815577 106.39107337091217 -1457.2733198815577 106.39107337091217 -1484.570833930659 Z"/><text font-size="10" font-family="sans-serif" fill="rgb(107, 174, 214)" x="110" y="-1470.570833930659" text-anchor="end">1 </text><text font-size="10" font-family="sans-serif" fill="rgb(107, 174, 214)" x="110" y="-1470.570833930659" text-anchor="start">row</text></g><g class="link"><path fill="#DFE1E3" d="M 141.57167542850306 -1327.1739180900645 C 141.57167542850306 -1318.0894123992541 141.57167542850306 -1318.0894123992541 141.57167542850306 -1277.1739180900643 L 78.42832457149694 -1277.1739180900643 C 78.42832457149694 -1286.2584237808749 78.42832457149694 -1286.2584237808749 78.42832457149694 -1327.1739180900645 Z"/><text font-size="10" font-family="sans-serif" fill="rgb(107, 174, 214)" x="110" y="-1313.1739180900645" text-anchor="end">3368 </text><text font-size="10" font-family="sans-serif" fill="rgb(107, 174, 214)" x="110" y="-1313.1739180900645" text-anchor="start">rows</text></g><g class="link"><path fill="#DFE1E3" d="M 140.16756253572112 -1152.6450028525046 C 140.16756253572112 -1143.5604971616942 140.16756253572112 -1143.5604971616942 140.16756253572112 -1102.6450028525046 L 79.83243746427887 -1102.6450028525046 C 79.83243746427887 -1111.729508543315 79.83243746427887 -1111.729508543315 79.83243746427887 -1152.6450028525046 Z"/><text font-size="10" font-family="sans-serif" fill="rgb(107, 174, 214)" x="110" y="-1138.6450028525046" text-anchor="end">2319 </text><text font-size="10" font-family="sans-serif" fill="rgb(107, 174, 214)" x="110" y="-1138.6450028525046" text-anchor="start">rows</text></g><g class="link"><path fill="#DFE1E3" d="M 140.16756253572112 -994.0914664148482 C 140.16756253572112 -985.0069607240379 140.16756253572112 -985.0069607240379 140.16756253572112 -944.0914664148484 L 79.83243746427887 -944.0914664148484 C 79.83243746427887 -953.1759721056588 79.83243746427887 -953.1759721056588 79.83243746427887 -994.0914664148482 Z"/><text font-size="10" font-family="sans-serif" fill="rgb(107, 174, 214)" x="110" y="-980.0914664148482" text-anchor="end">2319 </text><text font-size="10" font-family="sans-serif" fill="rgb(107, 174, 214)" x="110" y="-980.0914664148482" text-anchor="start">rows</text></g><g class="link"><path fill="#DFE1E3" d="M 140.16756253572112 -838.0457332074242 C 140.16756253572112 -828.9612275166137 140.16756253572112 -828.9612275166137 140.16756253572112 -788.0457332074242 L 79.83243746427887 -788.0457332074242 C 79.83243746427887 -797.1302388982347 79.83243746427887 -797.1302388982347 79.83243746427887 -838.0457332074242 Z"/><text font-size="10" font-family="sans-serif" fill="rgb(107, 174, 214)" x="110" y="-824.0457332074242" text-anchor="end">2319 </text><text font-size="10" font-family="sans-serif" fill="rgb(107, 174, 214)" x="110" y="-824.0457332074242" text-anchor="start">rows</text></g><g class="link"><path fill="#DFE1E3" d="M 140.16756253572112 -640 C 140.16756253572112 -630.9154943091895 140.16756253572112 -630.9154943091895 140.16756253572112 -590 L 79.83243746427887 -590 C 79.83243746427887 -599.0845056908105 79.83243746427887 -599.0845056908105 79.83243746427887 -640 Z"/><text font-size="10" font-family="sans-serif" fill="rgb(107, 174, 214)" x="110" y="-626" text-anchor="end">2319 </text><text font-size="10" font-family="sans-serif" fill="rgb(107, 174, 214)" x="110" y="-626" text-anchor="start">rows</text></g><g class="link"><path fill="#DFE1E3" d="M 128.5169739252728 -470 C 128.5169739252728 -456.7882717252436 128.5169739252728 -456.7882717252436 128.5169739252728 -420 L 91.4830260747272 -420 C 91.4830260747272 -433.2117282747564 91.4830260747272 -433.2117282747564 91.4830260747272 -470 Z"/><text font-size="10" font-family="sans-serif" fill="rgb(107, 174, 214)" x="110" y="-456" text-anchor="end">104 </text><text font-size="10" font-family="sans-serif" fill="rgb(107, 174, 214)" x="110" y="-456" text-anchor="start">rows</text></g><g class="link"><path fill="#DFE1E3" d="M 117.74397750332491 -294 C 117.74397750332491 -273.9299691953864 117.74397750332491 -273.9299691953864 117.74397750332491 -244 L 102.25602249667509 -244 C 102.25602249667509 -264.0700308046136 102.25602249667509 -264.0700308046136 102.25602249667509 -294 Z"/><text font-size="10" font-family="sans-serif" fill="rgb(107, 174, 214)" x="110" y="-280" text-anchor="end">5 </text><text font-size="10" font-family="sans-serif" fill="rgb(107, 174, 214)" x="110" y="-280" text-anchor="start">rows</text></g><g class="link"><path fill="#DFE1E3" d="M 117.74397750332491 -118 C 117.74397750332491 -97.92996919538638 117.74397750332491 -97.92996919538638 117.74397750332491 -68 L 102.25602249667509 -68 C 102.25602249667509 -88.07003080461362 102.25602249667509 -88.07003080461362 102.25602249667509 -118 Z"/><text font-size="10" font-family="sans-serif" fill="rgb(107, 174, 214)" x="110" y="-104" text-anchor="end">5 </text><text font-size="10" font-family="sans-serif" fill="rgb(107, 174, 214)" x="110" y="-104" text-anchor="start">rows</text></g></g><g class="layer operators"><g class="operator" transform="translate(0, -68)"><rect class="background" width="220" height="18" rx="4" ry="4" fill="rgb(255, 255, 255)"/><g class="header" pointer-events="all"><path class="banner" d="M 216 0 A 4 4 0 0 1 220 4 L 220 14 A 4 4 0 0 1 216 18 L 4 18 A 4 4 0 0 1 0 14 L 0 4 A 4 4 0 0 1 4 0 Z" style="fill: rgb(198, 219, 239);"/><text class="title" font-size="11" font-family="sans-serif" x="18" y="13" fill="#000000">Result</text></g><path class="cost" fill="#F25A29" d="M 216 18 A 4 4 0 0 1 216 18 L 4 18 A 4 4 0 0 1 4 18 Z"/><rect class="outline" width="220" rx="4" ry="4" fill="none" stroke-width="1" style="stroke: rgb(139, 153, 167);" height="18"/></g><g class="operator" transform="translate(0, -244)"><rect class="background" width="220" height="126" rx="4" ry="4" fill="rgb(255, 255, 255)"/><g class="header" pointer-events="all"><path class="banner" d="M 216 0 A 4 4 0 0 1 220 4 L 220 14 A 4 4 0 0 1 220 18 L 0 18 A 4 4 0 0 1 0 14 L 0 4 A 4 4 0 0 1 4 0 Z" style="fill: rgb(198, 219, 239);"/><path class="expand" fill="#000000" d="M -5 -10 L 8.66 0 L -5 10 Z" transform="translate(9, 9) rotate(90) scale(0.5,0.5)"/><text class="title" font-size="11" font-family="sans-serif" x="18" y="13" fill="#000000">ProduceResults@neo4j</text></g><path class="cost" fill="#F25A29" d="M 216 126 A 4 4 0 0 1 216 126 L 4 126 A 4 4 0 0 1 4 126 Z"/><rect class="outline" width="220" rx="4" ry="4" fill="none" stroke-width="1" style="stroke: rgb(139, 153, 167);" height="126"/><g class="detail identifiers" transform="translate(0, 32)" font-family="'Fira Code',Monaco,'Courier New',Terminal,monospace"><text font-size="10" x="3" text-anchor="start" fill="black" font-family="sans-serif">styleName, avgSmellFeel</text></g><g class="detail padding" transform="translate(0, 46)" font-family="'Helvetica Neue',Helvetica,Arial,sans-serif"><text font-size="10" x="3" text-anchor="start" fill="black" font-family="sans-serif"/><path class="divider" visibility="visible" d="M 0 -6 L 220 -6" stroke="#DFE1E3"/></g><g class="detail expression" transform="translate(0, 52)" font-family="'Fira Code',Monaco,'Courier New',Terminal,monospace"><text font-size="10" x="3" text-anchor="start" fill="black" font-family="sans-serif">styleName, avgSmellFeel</text></g><g class="detail padding" transform="translate(0, 66)" font-family="'Helvetica Neue',Helvetica,Arial,sans-serif"><text font-size="10" x="3" text-anchor="start" fill="black" font-family="sans-serif"/><path class="divider" visibility="visible" d="M 0 -6 L 220 -6" stroke="#DFE1E3"/></g><g class="detail order" transform="translate(0, 72)" font-family="'Helvetica Neue',Helvetica,Arial,sans-serif"><text font-size="10" x="3" text-anchor="start" fill="black" font-family="sans-serif">Ordered by avgSmellFeel DESC</text></g><g class="detail padding" transform="translate(0, 86)" font-family="'Helvetica Neue',Helvetica,Arial,sans-serif"><text font-size="10" x="3" text-anchor="start" fill="black" font-family="sans-serif"/><path class="divider" visibility="visible" d="M 0 -6 L 220 -6" stroke="#DFE1E3"/></g><g class="detail global-memory" transform="translate(0, 92)" font-family="'Helvetica Neue',Helvetica,Arial,sans-serif"><text font-size="10" x="110" text-anchor="end" fill="black" font-family="sans-serif">22 576 </text><text font-size="10" x="110" text-anchor="start" fill="black" font-family="sans-serif">total memory (bytes)</text></g><g class="detail estimated-rows" transform="translate(0, 106)" font-family="'Helvetica Neue',Helvetica,Arial,sans-serif"><text font-size="10" x="110" text-anchor="end" fill="black" font-family="sans-serif">2 </text><text font-size="10" x="110" text-anchor="start" fill="black" font-family="sans-serif">estimated rows</text></g><g class="detail db-hits" transform="translate(0, 120)" font-family="'Helvetica Neue',Helvetica,Arial,sans-serif"><text font-size="10" x="110" text-anchor="end" fill="black" font-family="sans-serif">0 </text><text font-size="10" x="110" text-anchor="start" fill="black" font-family="sans-serif">db hits</text></g></g><g class="operator" transform="translate(0, -420)"><rect class="background" width="220" height="126" rx="4" ry="4" fill="rgb(255, 255, 255)"/><g class="header" pointer-events="all"><path class="banner" d="M 216 0 A 4 4 0 0 1 220 4 L 220 14 A 4 4 0 0 1 220 18 L 0 18 A 4 4 0 0 1 0 14 L 0 4 A 4 4 0 0 1 4 0 Z" style="fill: rgb(107, 174, 214);"/><path class="expand" fill="#FFFFFF" d="M -5 -10 L 8.66 0 L -5 10 Z" transform="translate(9, 9) rotate(90) scale(0.5,0.5)"/><text class="title" font-size="11" font-family="sans-serif" x="18" y="13" fill="#FFFFFF">Top@neo4j</text></g><path class="cost" fill="#F25A29" d="M 216 126 A 4 4 0 0 1 216 126 L 4 126 A 4 4 0 0 1 4 126 Z"/><rect class="outline" width="220" rx="4" ry="4" fill="none" stroke-width="1" style="stroke: rgb(75, 122, 150);" height="126"/><g class="detail identifiers" transform="translate(0, 32)" font-family="'Fira Code',Monaco,'Courier New',Terminal,monospace"><text font-size="10" x="3" text-anchor="start" fill="black" font-family="sans-serif">styleName, avgSmellFeel</text></g><g class="detail padding" transform="translate(0, 46)" font-family="'Helvetica Neue',Helvetica,Arial,sans-serif"><text font-size="10" x="3" text-anchor="start" fill="black" font-family="sans-serif"/><path class="divider" visibility="visible" d="M 0 -6 L 220 -6" stroke="#DFE1E3"/></g><g class="detail expression" transform="translate(0, 52)" font-family="'Fira Code',Monaco,'Courier New',Terminal,monospace"><text font-size="10" x="3" text-anchor="start" fill="black" font-family="sans-serif">avgSmellFeel DESC LIMIT 5</text></g><g class="detail padding" transform="translate(0, 66)" font-family="'Helvetica Neue',Helvetica,Arial,sans-serif"><text font-size="10" x="3" text-anchor="start" fill="black" font-family="sans-serif"/><path class="divider" visibility="visible" d="M 0 -6 L 220 -6" stroke="#DFE1E3"/></g><g class="detail order" transform="translate(0, 72)" font-family="'Helvetica Neue',Helvetica,Arial,sans-serif"><text font-size="10" x="3" text-anchor="start" fill="black" font-family="sans-serif">Ordered by avgSmellFeel DESC</text></g><g class="detail padding" transform="translate(0, 86)" font-family="'Helvetica Neue',Helvetica,Arial,sans-serif"><text font-size="10" x="3" text-anchor="start" fill="black" font-family="sans-serif"/><path class="divider" visibility="visible" d="M 0 -6 L 220 -6" stroke="#DFE1E3"/></g><g class="detail operator-memory" transform="translate(0, 92)" font-family="'Helvetica Neue',Helvetica,Arial,sans-serif"><text font-size="10" x="110" text-anchor="end" fill="black" font-family="sans-serif">1360 </text><text font-size="10" x="110" text-anchor="start" fill="black" font-family="sans-serif">memory (bytes)</text></g><g class="detail estimated-rows" transform="translate(0, 106)" font-family="'Helvetica Neue',Helvetica,Arial,sans-serif"><text font-size="10" x="110" text-anchor="end" fill="black" font-family="sans-serif">2 </text><text font-size="10" x="110" text-anchor="start" fill="black" font-family="sans-serif">estimated rows</text></g><g class="detail db-hits" transform="translate(0, 120)" font-family="'Helvetica Neue',Helvetica,Arial,sans-serif"><text font-size="10" x="110" text-anchor="end" fill="black" font-family="sans-serif">0 </text><text font-size="10" x="110" text-anchor="start" fill="black" font-family="sans-serif">db hits</text></g></g><g class="operator" transform="translate(0, -590)"><rect class="background" width="220" height="120" rx="4" ry="4" fill="rgb(255, 255, 255)"/><g class="header" pointer-events="all"><path class="banner" d="M 216 0 A 4 4 0 0 1 220 4 L 220 14 A 4 4 0 0 1 220 18 L 0 18 A 4 4 0 0 1 0 14 L 0 4 A 4 4 0 0 1 4 0 Z" style="fill: rgb(8, 48, 107);"/><path class="expand" fill="#FFFFFF" d="M -5 -10 L 8.66 0 L -5 10 Z" transform="translate(9, 9) rotate(90) scale(0.5,0.5)"/><text class="title" font-size="11" font-family="sans-serif" x="18" y="13" fill="#FFFFFF">EagerAggregation@neo4j</text></g><path class="cost" fill="#F25A29" d="M 216 120 A 4 4 0 0 1 216 120 L 4 120 A 4 4 0 0 1 4 120 Z"/><rect class="outline" width="220" rx="4" ry="4" fill="none" stroke-width="1" style="stroke: rgb(6, 34, 75);" height="120"/><g class="detail identifiers" transform="translate(0, 32)" font-family="'Fira Code',Monaco,'Courier New',Terminal,monospace"><text font-size="10" x="3" text-anchor="start" fill="black" font-family="sans-serif">styleName, avgSmellFeel</text></g><g class="detail padding" transform="translate(0, 46)" font-family="'Helvetica Neue',Helvetica,Arial,sans-serif"><text font-size="10" x="3" text-anchor="start" fill="black" font-family="sans-serif"/><path class="divider" visibility="visible" d="M 0 -6 L 220 -6" stroke="#DFE1E3"/></g><g class="detail expression" transform="translate(0, 52)" font-family="'Fira Code',Monaco,'Courier New',Terminal,monospace"><text font-size="10" x="3" text-anchor="start" fill="black" font-family="sans-serif">styleName, avg(smellFeel) AS </text></g><g class="detail expression" transform="translate(0, 66)" font-family="'Fira Code',Monaco,'Courier New',Terminal,monospace"><text font-size="10" x="3" text-anchor="start" fill="black" font-family="sans-serif">avgSmellFeel</text></g><g class="detail padding" transform="translate(0, 80)" font-family="'Helvetica Neue',Helvetica,Arial,sans-serif"><text font-size="10" x="3" text-anchor="start" fill="black" font-family="sans-serif"/><path class="divider" visibility="visible" d="M 0 -6 L 220 -6" stroke="#DFE1E3"/></g><g class="detail operator-memory" transform="translate(0, 86)" font-family="'Helvetica Neue',Helvetica,Arial,sans-serif"><text font-size="10" x="110" text-anchor="end" fill="black" font-family="sans-serif">22 512 </text><text font-size="10" x="110" text-anchor="start" fill="black" font-family="sans-serif">memory (bytes)</text></g><g class="detail estimated-rows" transform="translate(0, 100)" font-family="'Helvetica Neue',Helvetica,Arial,sans-serif"><text font-size="10" x="110" text-anchor="end" fill="black" font-family="sans-serif">2 </text><text font-size="10" x="110" text-anchor="start" fill="black" font-family="sans-serif">estimated rows</text></g><g class="detail db-hits" transform="translate(0, 114)" font-family="'Helvetica Neue',Helvetica,Arial,sans-serif"><text font-size="10" x="110" text-anchor="end" fill="black" font-family="sans-serif">0 </text><text font-size="10" x="110" text-anchor="start" fill="black" font-family="sans-serif">db hits</text></g></g><g class="operator" transform="translate(0, -788.0457153320312)"><rect class="background" width="220" height="148.04573320742418" rx="4" ry="4" fill="rgb(255, 255, 255)"/><g class="header" pointer-events="all"><path class="banner" d="M 216 0 A 4 4 0 0 1 220 4 L 220 14 A 4 4 0 0 1 220 18 L 0 18 A 4 4 0 0 1 0 14 L 0 4 A 4 4 0 0 1 4 0 Z" style="fill: rgb(107, 174, 214);"/><path class="expand" fill="#FFFFFF" d="M -5 -10 L 8.66 0 L -5 10 Z" transform="translate(9, 9) rotate(90) scale(0.5,0.5)"/><text class="title" font-size="11" font-family="sans-serif" x="18" y="13" fill="#FFFFFF">Projection@neo4j</text></g><path class="cost" fill="#F25A29" d="M 0 120.00000000000001 L 220 120.00000000000001 L 220 144.04573320742418 A 4 4 0 0 1 216 148.04573320742418 L 4 148.04573320742418 A 4 4 0 0 1 0 144.04573320742418 Z"/><text class="cost" font-size="10" font-family="sans-serif" fill="white" x="110" text-anchor="end" y="134">2319 </text><text class="cost" font-size="10" font-family="sans-serif" fill="white" x="110" text-anchor="start" y="134">db hits</text><rect class="outline" width="220" rx="4" ry="4" fill="none" stroke-width="1" style="stroke: rgb(75, 122, 150);" height="148.04573320742418"/><g class="detail identifiers" transform="translate(0, 32)" font-family="'Fira Code',Monaco,'Courier New',Terminal,monospace"><text font-size="10" x="3" text-anchor="start" fill="black" font-family="sans-serif">s, styleName, smellFeel, u, anon_0,</text></g><g class="detail identifiers" transform="translate(0, 46)" font-family="'Fira Code',Monaco,'Courier New',Terminal,monospace"><text font-size="10" x="3" text-anchor="start" fill="black" font-family="sans-serif"> b, r</text></g><g class="detail padding" transform="translate(0, 60)" font-family="'Helvetica Neue',Helvetica,Arial,sans-serif"><text font-size="10" x="3" text-anchor="start" fill="black" font-family="sans-serif"/><path class="divider" visibility="visible" d="M 0 -6 L 220 -6" stroke="#DFE1E3"/></g><g class="detail expression" transform="translate(0, 66)" font-family="'Fira Code',Monaco,'Courier New',Terminal,monospace"><text font-size="10" x="3" text-anchor="start" fill="black" font-family="sans-serif">s.name AS styleName, toFloat(cache[</text></g><g class="detail expression" transform="translate(0, 80)" font-family="'Fira Code',Monaco,'Courier New',Terminal,monospace"><text font-size="10" x="3" text-anchor="start" fill="black" font-family="sans-serif">r.smell]) + toFloat(cache[r.feel]) </text></g><g class="detail expression" transform="translate(0, 94)" font-family="'Fira Code',Monaco,'Courier New',Terminal,monospace"><text font-size="10" x="3" text-anchor="start" fill="black" font-family="sans-serif">AS smellFeel</text></g><g class="detail padding" transform="translate(0, 108)" font-family="'Helvetica Neue',Helvetica,Arial,sans-serif"><text font-size="10" x="3" text-anchor="start" fill="black" font-family="sans-serif"/><path class="divider" visibility="visible" d="M 0 -6 L 220 -6" stroke="#DFE1E3"/></g><g class="detail estimated-rows" transform="translate(0, 114)" font-family="'Helvetica Neue',Helvetica,Arial,sans-serif"><text font-size="10" x="110" text-anchor="end" fill="black" font-family="sans-serif">5 </text><text font-size="10" x="110" text-anchor="start" fill="black" font-family="sans-serif">estimated rows</text></g></g><g class="operator" transform="translate(0, -944.0914916992188)"><rect class="background" width="220" height="106.04573320742416" rx="4" ry="4" fill="rgb(255, 255, 255)"/><g class="header" pointer-events="all"><path class="banner" d="M 216 0 A 4 4 0 0 1 220 4 L 220 14 A 4 4 0 0 1 220 18 L 0 18 A 4 4 0 0 1 0 14 L 0 4 A 4 4 0 0 1 4 0 Z" style="fill: rgb(33, 113, 181);"/><path class="expand" fill="#FFFFFF" d="M -5 -10 L 8.66 0 L -5 10 Z" transform="translate(9, 9) rotate(90) scale(0.5,0.5)"/><text class="title" font-size="11" font-family="sans-serif" x="18" y="13" fill="#FFFFFF">Filter@neo4j</text></g><path class="cost" fill="#F25A29" d="M 0 78 L 220 78 L 220 102.04573320742416 A 4 4 0 0 1 216 106.04573320742416 L 4 106.04573320742416 A 4 4 0 0 1 0 102.04573320742416 Z"/><text class="cost" font-size="10" font-family="sans-serif" fill="white" x="110" text-anchor="end" y="92">2319 </text><text class="cost" font-size="10" font-family="sans-serif" fill="white" x="110" text-anchor="start" y="92">db hits</text><rect class="outline" width="220" rx="4" ry="4" fill="none" stroke-width="1" style="stroke: rgb(23, 79, 127);" height="106.04573320742416"/><g class="detail identifiers" transform="translate(0, 32)" font-family="'Fira Code',Monaco,'Courier New',Terminal,monospace"><text font-size="10" x="3" text-anchor="start" fill="black" font-family="sans-serif">s, u, anon_0, b, r</text></g><g class="detail padding" transform="translate(0, 46)" font-family="'Helvetica Neue',Helvetica,Arial,sans-serif"><text font-size="10" x="3" text-anchor="start" fill="black" font-family="sans-serif"/><path class="divider" visibility="visible" d="M 0 -6 L 220 -6" stroke="#DFE1E3"/></g><g class="detail expression" transform="translate(0, 52)" font-family="'Fira Code',Monaco,'Courier New',Terminal,monospace"><text font-size="10" x="3" text-anchor="start" fill="black" font-family="sans-serif">s:STYLE</text></g><g class="detail padding" transform="translate(0, 66)" font-family="'Helvetica Neue',Helvetica,Arial,sans-serif"><text font-size="10" x="3" text-anchor="start" fill="black" font-family="sans-serif"/><path class="divider" visibility="visible" d="M 0 -6 L 220 -6" stroke="#DFE1E3"/></g><g class="detail estimated-rows" transform="translate(0, 72)" font-family="'Helvetica Neue',Helvetica,Arial,sans-serif"><text font-size="10" x="110" text-anchor="end" fill="black" font-family="sans-serif">5 </text><text font-size="10" x="110" text-anchor="start" fill="black" font-family="sans-serif">estimated rows</text></g></g><g class="operator" transform="translate(0, -1102.64501953125)"><rect class="background" width="220" height="108.55353643765633" rx="4" ry="4" fill="rgb(255, 255, 255)"/><g class="header" pointer-events="all"><path class="banner" d="M 216 0 A 4 4 0 0 1 220 4 L 220 14 A 4 4 0 0 1 220 18 L 0 18 A 4 4 0 0 1 0 14 L 0 4 A 4 4 0 0 1 4 0 Z" style="fill: rgb(8, 81, 156);"/><path class="expand" fill="#FFFFFF" d="M -5 -10 L 8.66 0 L -5 10 Z" transform="translate(9, 9) rotate(90) scale(0.5,0.5)"/><text class="title" font-size="11" font-family="sans-serif" x="18" y="13" fill="#FFFFFF">Expand(All)@neo4j</text></g><path class="cost" fill="#F25A29" d="M 0 78 L 220 78 L 220 104.55353643765633 A 4 4 0 0 1 216 108.55353643765633 L 4 108.55353643765633 A 4 4 0 0 1 0 104.55353643765633 Z"/><text class="cost" font-size="10" font-family="sans-serif" fill="white" x="110" text-anchor="end" y="92">4638 </text><text class="cost" font-size="10" font-family="sans-serif" fill="white" x="110" text-anchor="start" y="92">db hits</text><rect class="outline" width="220" rx="4" ry="4" fill="none" stroke-width="1" style="stroke: rgb(6, 57, 109);" height="108.55353643765633"/><g class="detail identifiers" transform="translate(0, 32)" font-family="'Fira Code',Monaco,'Courier New',Terminal,monospace"><text font-size="10" x="3" text-anchor="start" fill="black" font-family="sans-serif">s, u, anon_0, b, r</text></g><g class="detail padding" transform="translate(0, 46)" font-family="'Helvetica Neue',Helvetica,Arial,sans-serif"><text font-size="10" x="3" text-anchor="start" fill="black" font-family="sans-serif"/><path class="divider" visibility="visible" d="M 0 -6 L 220 -6" stroke="#DFE1E3"/></g><g class="detail expression" transform="translate(0, 52)" font-family="'Fira Code',Monaco,'Courier New',Terminal,monospace"><text font-size="10" x="3" text-anchor="start" fill="black" font-family="sans-serif">(b)-[anon_0:HAS_STYLE]-&gt;(s)</text></g><g class="detail padding" transform="translate(0, 66)" font-family="'Helvetica Neue',Helvetica,Arial,sans-serif"><text font-size="10" x="3" text-anchor="start" fill="black" font-family="sans-serif"/><path class="divider" visibility="visible" d="M 0 -6 L 220 -6" stroke="#DFE1E3"/></g><g class="detail estimated-rows" transform="translate(0, 72)" font-family="'Helvetica Neue',Helvetica,Arial,sans-serif"><text font-size="10" x="110" text-anchor="end" fill="black" font-family="sans-serif">5 </text><text font-size="10" x="110" text-anchor="start" fill="black" font-family="sans-serif">estimated rows</text></g></g><g class="operator" transform="translate(0, -1277.1739501953125)"><rect class="background" width="220" height="124.52891523755974" rx="4" ry="4" fill="rgb(255, 255, 255)"/><g class="header" pointer-events="all"><path class="banner" d="M 216 0 A 4 4 0 0 1 220 4 L 220 14 A 4 4 0 0 1 220 18 L 0 18 A 4 4 0 0 1 0 14 L 0 4 A 4 4 0 0 1 4 0 Z" style="fill: rgb(33, 113, 181);"/><path class="expand" fill="#FFFFFF" d="M -5 -10 L 8.66 0 L -5 10 Z" transform="translate(9, 9) rotate(90) scale(0.5,0.5)"/><text class="title" font-size="11" font-family="sans-serif" x="18" y="13" fill="#FFFFFF">Filter@neo4j</text></g><path class="cost" fill="#F25A29" d="M 0 92 L 220 92 L 220 120.52891523755974 A 4 4 0 0 1 216 124.52891523755974 L 4 124.52891523755974 A 4 4 0 0 1 0 120.52891523755974 Z"/><text class="cost" font-size="10" font-family="sans-serif" fill="white" x="110" text-anchor="end" y="106">8006 </text><text class="cost" font-size="10" font-family="sans-serif" fill="white" x="110" text-anchor="start" y="106">db hits</text><rect class="outline" width="220" rx="4" ry="4" fill="none" stroke-width="1" style="stroke: rgb(23, 79, 127);" height="124.52891523755974"/><g class="detail identifiers" transform="translate(0, 32)" font-family="'Fira Code',Monaco,'Courier New',Terminal,monospace"><text font-size="10" x="3" text-anchor="start" fill="black" font-family="sans-serif">u, r, b</text></g><g class="detail padding" transform="translate(0, 46)" font-family="'Helvetica Neue',Helvetica,Arial,sans-serif"><text font-size="10" x="3" text-anchor="start" fill="black" font-family="sans-serif"/><path class="divider" visibility="visible" d="M 0 -6 L 220 -6" stroke="#DFE1E3"/></g><g class="detail expression" transform="translate(0, 52)" font-family="'Fira Code',Monaco,'Courier New',Terminal,monospace"><text font-size="10" x="3" text-anchor="start" fill="black" font-family="sans-serif">cache[r.feel] IS NOT NULL AND cache</text></g><g class="detail expression" transform="translate(0, 66)" font-family="'Fira Code',Monaco,'Courier New',Terminal,monospace"><text font-size="10" x="3" text-anchor="start" fill="black" font-family="sans-serif">[r.smell] IS NOT NULL AND b:BEERS</text></g><g class="detail padding" transform="translate(0, 80)" font-family="'Helvetica Neue',Helvetica,Arial,sans-serif"><text font-size="10" x="3" text-anchor="start" fill="black" font-family="sans-serif"/><path class="divider" visibility="visible" d="M 0 -6 L 220 -6" stroke="#DFE1E3"/></g><g class="detail estimated-rows" transform="translate(0, 86)" font-family="'Helvetica Neue',Helvetica,Arial,sans-serif"><text font-size="10" x="110" text-anchor="end" fill="black" font-family="sans-serif">5 </text><text font-size="10" x="110" text-anchor="start" fill="black" font-family="sans-serif">estimated rows</text></g></g><g class="operator" transform="translate(0, -1434.57080078125)"><rect class="background" width="220" height="107.39691584059449" rx="4" ry="4" fill="rgb(255, 255, 255)"/><g class="header" pointer-events="all"><path class="banner" d="M 216 0 A 4 4 0 0 1 220 4 L 220 14 A 4 4 0 0 1 220 18 L 0 18 A 4 4 0 0 1 0 14 L 0 4 A 4 4 0 0 1 4 0 Z" style="fill: rgb(8, 81, 156);"/><path class="expand" fill="#FFFFFF" d="M -5 -10 L 8.66 0 L -5 10 Z" transform="translate(9, 9) rotate(90) scale(0.5,0.5)"/><text class="title" font-size="11" font-family="sans-serif" x="18" y="13" fill="#FFFFFF">Expand(All)@neo4j</text></g><path class="cost" fill="#F25A29" d="M 0 78 L 220 78 L 220 103.39691584059449 A 4 4 0 0 1 216 107.39691584059449 L 4 107.39691584059449 A 4 4 0 0 1 0 103.39691584059449 Z"/><text class="cost" font-size="10" font-family="sans-serif" fill="white" x="110" text-anchor="end" y="92">3369 </text><text class="cost" font-size="10" font-family="sans-serif" fill="white" x="110" text-anchor="start" y="92">db hits</text><rect class="outline" width="220" rx="4" ry="4" fill="none" stroke-width="1" style="stroke: rgb(6, 57, 109);" height="107.39691584059449"/><g class="detail identifiers" transform="translate(0, 32)" font-family="'Fira Code',Monaco,'Courier New',Terminal,monospace"><text font-size="10" x="3" text-anchor="start" fill="black" font-family="sans-serif">u, r, b</text></g><g class="detail padding" transform="translate(0, 46)" font-family="'Helvetica Neue',Helvetica,Arial,sans-serif"><text font-size="10" x="3" text-anchor="start" fill="black" font-family="sans-serif"/><path class="divider" visibility="visible" d="M 0 -6 L 220 -6" stroke="#DFE1E3"/></g><g class="detail expression" transform="translate(0, 52)" font-family="'Fira Code',Monaco,'Courier New',Terminal,monospace"><text font-size="10" x="3" text-anchor="start" fill="black" font-family="sans-serif">(u)-[r:RATED]-&gt;(b)</text></g><g class="detail padding" transform="translate(0, 66)" font-family="'Helvetica Neue',Helvetica,Arial,sans-serif"><text font-size="10" x="3" text-anchor="start" fill="black" font-family="sans-serif"/><path class="divider" visibility="visible" d="M 0 -6 L 220 -6" stroke="#DFE1E3"/></g><g class="detail estimated-rows" transform="translate(0, 72)" font-family="'Helvetica Neue',Helvetica,Arial,sans-serif"><text font-size="10" x="110" text-anchor="end" fill="black" font-family="sans-serif">20 </text><text font-size="10" x="110" text-anchor="start" fill="black" font-family="sans-serif">estimated rows</text></g></g><g class="operator" transform="translate(0, -1594.546875)"><rect class="background" width="220" height="109.97601045599718" rx="4" ry="4" fill="rgb(255, 255, 255)"/><g class="header" pointer-events="all"><path class="banner" d="M 216 0 A 4 4 0 0 1 220 4 L 220 14 A 4 4 0 0 1 220 18 L 0 18 A 4 4 0 0 1 0 14 L 0 4 A 4 4 0 0 1 4 0 Z" style="fill: rgb(158, 202, 225);"/><path class="expand" fill="#000000" d="M -5 -10 L 8.66 0 L -5 10 Z" transform="translate(9, 9) rotate(90) scale(0.5,0.5)"/><text class="title" font-size="11" font-family="sans-serif" x="18" y="13" fill="#000000">NodeIndexSeek@neo4j</text></g><path class="cost" fill="#F25A29" d="M 219.99992806207544 106 A 4 4 0 0 1 216 109.97601045599718 L 4 109.97601045599718 A 4 4 0 0 1 0.00007193792456616777 106 Z"/><rect class="outline" width="220" rx="4" ry="4" fill="none" stroke-width="1" style="stroke: rgb(111, 141, 158);" height="109.97601045599718"/><g class="detail identifiers" transform="translate(0, 32)" font-family="'Fira Code',Monaco,'Courier New',Terminal,monospace"><text font-size="10" x="3" text-anchor="start" fill="black" font-family="sans-serif">u</text></g><g class="detail padding" transform="translate(0, 46)" font-family="'Helvetica Neue',Helvetica,Arial,sans-serif"><text font-size="10" x="3" text-anchor="start" fill="black" font-family="sans-serif"/><path class="divider" visibility="visible" d="M 0 -6 L 220 -6" stroke="#DFE1E3"/></g><g class="detail expression" transform="translate(0, 52)" font-family="'Fira Code',Monaco,'Courier New',Terminal,monospace"><text font-size="10" x="3" text-anchor="start" fill="black" font-family="sans-serif">BTREE INDEX u:USER(name) WHERE name</text></g><g class="detail expression" transform="translate(0, 66)" font-family="'Fira Code',Monaco,'Courier New',Terminal,monospace"><text font-size="10" x="3" text-anchor="start" fill="black" font-family="sans-serif"> = $autostring_0</text></g><g class="detail padding" transform="translate(0, 80)" font-family="'Helvetica Neue',Helvetica,Arial,sans-serif"><text font-size="10" x="3" text-anchor="start" fill="black" font-family="sans-serif"/><path class="divider" visibility="visible" d="M 0 -6 L 220 -6" stroke="#DFE1E3"/></g><g class="detail estimated-rows" transform="translate(0, 86)" font-family="'Helvetica Neue',Helvetica,Arial,sans-serif"><text font-size="10" x="110" text-anchor="end" fill="black" font-family="sans-serif">1 </text><text font-size="10" x="110" text-anchor="start" fill="black" font-family="sans-serif">estimated rows</text></g><g class="detail db-hits" transform="translate(0, 100)" font-family="'Helvetica Neue',Helvetica,Arial,sans-serif"><text font-size="10" x="110" text-anchor="end" fill="black" font-family="sans-serif">2 </text><text font-size="10" x="110" text-anchor="start" fill="black" font-family="sans-serif">db hits</text></g></g></g></svg>