<svg xmlns="http://www.w3.org/2000/svg" width="221.07180786132812" height="1870.0567626953125" viewBox="-0.5358984470367432 -1920.0567626953125 221.07180786132812 1870.0567626953125"><title>Neo4j Graph Visualization</title><desc>Created using Neo4j (http://www.neo4j.com/)</desc><g class="layer links"><g class="link"><path fill="#DFE1E3" d="M 155.14104478598523 -1799.6134158699558 C 155.14104478598523 -1790.5289101791454 155.14104478598523 -1790.5289101791454 155.14104478598523 -1749.6134158699558 L 64.85895521401476 -1749.6134158699558 C 64.85895521401476 -1758.6979215607662 64.85895521401476 -1758.6979215607662 64.85895521401476 -1799.6134158699558 Z"/><text font-size="10" font-family="sans-serif" fill="rgb(107, 174, 214)" x="110" y="-1785.6134158699558" text-anchor="end">123 935 </text><text font-size="10" font-family="sans-serif" fill="rgb(107, 174, 214)" x="110" y="-1785.6134158699558" text-anchor="start">rows</text></g><g class="link"><path fill="#DFE1E3" d="M 113.60892662908783 -1629.1701035757392 C 113.60892662908783 -1606.4676176248404 113.60892662908785 -1606.4676176248404 113.60892662908785 -1579.1701035757392 L 106.39107337091217 -1579.1701035757392 C 106.39107337091217 -1601.872589526638 106.39107337091217 -1601.872589526638 106.39107337091217 -1629.1701035757392 Z"/><text font-size="10" font-family="sans-serif" fill="rgb(107, 174, 214)" x="110" y="-1615.1701035757392" text-anchor="end">1 </text><text font-size="10" font-family="sans-serif" fill="rgb(107, 174, 214)" x="110" y="-1615.1701035757392" text-anchor="start">row</text></g><g class="link"><path fill="#DFE1E3" d="M 141.57167542850306 -1471.7731877351448 C 141.57167542850306 -1462.6886820443344 141.57167542850306 -1462.6886820443344 141.57167542850306 -1421.7731877351448 L 78.42832457149694 -1421.7731877351448 C 78.42832457149694 -1430.8576934259552 78.42832457149694 -1430.8576934259552 78.42832457149694 -1471.7731877351448 Z"/><text font-size="10" font-family="sans-serif" fill="rgb(107, 174, 214)" x="110" y="-1457.7731877351448" text-anchor="end">3368 </text><text font-size="10" font-family="sans-serif" fill="rgb(107, 174, 214)" x="110" y="-1457.7731877351448" text-anchor="start">rows</text></g><g class="link"><path fill="#DFE1E3" d="M 140.16756253572112 -1297.2442724975851 C 140.16756253572112 -1288.1597668067748 140.16756253572112 -1288.1597668067748 140.16756253572112 -1247.2442724975851 L 79.83243746427887 -1247.2442724975851 C 79.83243746427887 -1256.3287781883955 79.83243746427887 -1256.3287781883955 79.83243746427887 -1297.2442724975851 Z"/><text font-size="10" font-family="sans-serif" fill="rgb(107, 174, 214)" x="110" y="-1283.2442724975851" text-anchor="end">2319 </text><text font-size="10" font-family="sans-serif" fill="rgb(107, 174, 214)" x="110" y="-1283.2442724975851" text-anchor="start">rows</text></g><g class="link"><path fill="#DFE1E3" d="M 140.16756253572112 -1138.690736059929 C 140.16756253572112 -1129.6062303691185 140.16756253572112 -1129.6062303691185 140.16756253572112 -1088.690736059929 L 79.83243746427887 -1088.690736059929 C 79.83243746427887 -1097.7752417507393 79.83243746427887 -1097.7752417507393 79.83243746427887 -1138.690736059929 Z"/><text font-size="10" font-family="sans-serif" fill="rgb(107, 174, 214)" x="110" y="-1124.690736059929" text-anchor="end">2319 </text><text font-size="10" font-family="sans-serif" fill="rgb(107, 174, 214)" x="110" y="-1124.690736059929" text-anchor="start">rows</text></g><g class="link"><path fill="#DFE1E3" d="M 140.16756253572112 -982.6450028525047 C 140.16756253572112 -973.5604971616942 140.16756253572112 -973.5604971616942 140.16756253572112 -932.6450028525047 L 79.83243746427887 -932.6450028525047 C 79.83243746427887 -941.7295085433152 79.83243746427887 -941.7295085433152 79.83243746427887 -982.6450028525047 Z"/><text font-size="10" font-family="sans-serif" fill="rgb(107, 174, 214)" x="110" y="-968.6450028525047" text-anchor="end">2319 </text><text font-size="10" font-family="sans-serif" fill="rgb(107, 174, 214)" x="110" y="-968.6450028525047" text-anchor="start">rows</text></g><g class="link"><path fill="#DFE1E3" d="M 140.16756253572112 -824.0914664148484 C 140.16756253572112 -815.0069607240379 140.16756253572112 -815.0069607240379 140.16756253572112 -774.0914664148484 L 79.83243746427887 -774.0914664148484 C 79.83243746427887 -783.1759721056588 79.83243746427887 -783.1759721056588 79.83243746427887 -824.0914664148484 Z"/><text font-size="10" font-family="sans-serif" fill="rgb(107, 174, 214)" x="110" y="-810.0914664148484" text-anchor="end">2319 </text><text font-size="10" font-family="sans-serif" fill="rgb(107, 174, 214)" x="110" y="-810.0914664148484" text-anchor="start">rows</text></g><g class="link"><path fill="#DFE1E3" d="M 140.16756253572112 -668.0457332074242 C 140.16756253572112 -658.9612275166137 140.16756253572112 -658.9612275166137 140.16756253572112 -618.0457332074242 L 79.83243746427887 -618.0457332074242 C 79.83243746427887 -627.1302388982347 79.83243746427887 -627.1302388982347 79.83243746427887 -668.0457332074242 Z"/><text font-size="10" font-family="sans-serif" fill="rgb(107, 174, 214)" x="110" y="-654.0457332074242" text-anchor="end">2319 </text><text font-size="10" font-family="sans-serif" fill="rgb(107, 174, 214)" x="110" y="-654.0457332074242" text-anchor="start">rows</text></g><g class="link"><path fill="#DFE1E3" d="M 128.5169739252728 -470 C 128.5169739252728 -456.7882717252436 128.5169739252728 -456.7882717252436 128.5169739252728 -420 L 91.4830260747272 -420 C 91.4830260747272 -433.2117282747564 91.4830260747272 -433.2117282747564 91.4830260747272 -470 Z"/><text font-size="10" font-family="sans-serif" fill="rgb(107, 174, 214)" x="110" y="-456" text-anchor="end">104 </text><text font-size="10" font-family="sans-serif" fill="rgb(107, 174, 214)" x="110" y="-456" text-anchor="start">rows</text></g><g class="link"><path fill="#DFE1E3" d="M 117.74397750332491 -294 C 117.74397750332491 -273.9299691953864 117.74397750332491 -273.9299691953864 117.74397750332491 -244 L 102.25602249667509 -244 C 102.25602249667509 -264.0700308046136 102.25602249667509 -264.0700308046136 102.25602249667509 -294 Z"/><text font-size="10" font-family="sans-serif" fill="rgb(107, 174, 214)" x="110" y="-280" text-anchor="end">5 </text><text font-size="10" font-family="sans-serif" fill="rgb(107, 174, 214)" x="110" y="-280" text-anchor="start">rows</text></g><g class="link"><path fill="#DFE1E3" d="M 117.74397750332491 -118 C 117.74397750332491 -97.92996919538638 117.74397750332491 -97.92996919538638 117.74397750332491 -68 L 102.25602249667509 -68 C 102.25602249667509 -88.07003080461362 102.25602249667509 -88.07003080461362 102.25602249667509 -118 Z"/><text font-size="10" font-family="sans-serif" fill="rgb(107, 174, 214)" x="110" y="-104" text-anchor="end">5 </text><text font-size="10" font-family="sans-serif" fill="rgb(107, 174, 214)" x="110" y="-104" text-anchor="start">rows</text></g></g><g class="layer operators"><g class="operator" transform="translate(0, -68)"><rect class="background" width="220" height="18" rx="4" ry="4" fill="rgb(255, 255, 255)"/><g class="header" pointer-events="all"><path class="banner" d="M 216 0 A 4 4 0 0 1 220 4 L 220 14 A 4 4 0 0 1 216 18 L 4 18 A 4 4 0 0 1 0 14 L 0 4 A 4 4 0 0 1 4 0 Z" style="fill: rgb(198, 219, 239);"/><text class="title" font-size="11" font-family="sans-serif" x="18" y="13" fill="#000000">Result</text></g><path class="cost" fill="#F25A29" d="M 216 18 A 4 4 0 0 1 216 18 L 4 18 A 4 4 0 0 1 4 18 Z"/><rect class="outline" width="220" rx="4" ry="4" fill="none" stroke-width="1" style="stroke: rgb(139, 153, 167);" height="18"/></g><g class="operator" transform="translate(0, -244)"><rect class="background" width="220" height="126" rx="4" ry="4" fill="rgb(255, 255, 255)"/><g class="header" pointer-events="all"><path class="banner" d="M 216 0 A 4 4 0 0 1 220 4 L 220 14 A 4 4 0 0 1 220 18 L 0 18 A 4 4 0 0 1 0 14 L 0 4 A 4 4 0 0 1 4 0 Z" style="fill: rgb(198, 219, 239);"/><path class="expand" fill="#000000" d="M -5 -10 L 8.66 0 L -5 10 Z" transform="translate(9, 9) rotate(90) scale(0.5,0.5)"/><text class="title" font-size="11" font-family="sans-serif" x="18" y="13" fill="#000000">ProduceResults@neo4j</text></g><path class="cost" fill="#F25A29" d="M 216 126 A 4 4 0 0 1 216 126 L 4 126 A 4 4 0 0 1 4 126 Z"/><rect class="outline" width="220" rx="4" ry="4" fill="none" stroke-width="1" style="stroke: rgb(139, 153, 167);" height="126"/><g class="detail identifiers" transform="translate(0, 32)" font-family="'Fira Code',Monaco,'Courier New',Terminal,monospace"><text font-size="10" x="3" text-anchor="start" fill="black" font-family="sans-serif">`s.name`, avgSmellFeel</text></g><g class="detail padding" transform="translate(0, 46)" font-family="'Helvetica Neue',Helvetica,Arial,sans-serif"><text font-size="10" x="3" text-anchor="start" fill="black" font-family="sans-serif"/><path class="divider" visibility="visible" d="M 0 -6 L 220 -6" stroke="#DFE1E3"/></g><g class="detail expression" transform="translate(0, 52)" font-family="'Fira Code',Monaco,'Courier New',Terminal,monospace"><text font-size="10" x="3" text-anchor="start" fill="black" font-family="sans-serif">`s.name`, avgSmellFeel</text></g><g class="detail padding" transform="translate(0, 66)" font-family="'Helvetica Neue',Helvetica,Arial,sans-serif"><text font-size="10" x="3" text-anchor="start" fill="black" font-family="sans-serif"/><path class="divider" visibility="visible" d="M 0 -6 L 220 -6" stroke="#DFE1E3"/></g><g class="detail order" transform="translate(0, 72)" font-family="'Helvetica Neue',Helvetica,Arial,sans-serif"><text font-size="10" x="3" text-anchor="start" fill="black" font-family="sans-serif">Ordered by avgSmellFeel DESC</text></g><g class="detail padding" transform="translate(0, 86)" font-family="'Helvetica Neue',Helvetica,Arial,sans-serif"><text font-size="10" x="3" text-anchor="start" fill="black" font-family="sans-serif"/><path class="divider" visibility="visible" d="M 0 -6 L 220 -6" stroke="#DFE1E3"/></g><g class="detail global-memory" transform="translate(0, 92)" font-family="'Helvetica Neue',Helvetica,Arial,sans-serif"><text font-size="10" x="110" text-anchor="end" fill="black" font-family="sans-serif">22 656 </text><text font-size="10" x="110" text-anchor="start" fill="black" font-family="sans-serif">total memory (bytes)</text></g><g class="detail estimated-rows" transform="translate(0, 106)" font-family="'Helvetica Neue',Helvetica,Arial,sans-serif"><text font-size="10" x="110" text-anchor="end" fill="black" font-family="sans-serif">5 </text><text font-size="10" x="110" text-anchor="start" fill="black" font-family="sans-serif">estimated rows</text></g><g class="detail db-hits" transform="translate(0, 120)" font-family="'Helvetica Neue',Helvetica,Arial,sans-serif"><text font-size="10" x="110" text-anchor="end" fill="black" font-family="sans-serif">0 </text><text font-size="10" x="110" text-anchor="start" fill="black" font-family="sans-serif">db hits</text></g></g><g class="operator" transform="translate(0, -420)"><rect class="background" width="220" height="126" rx="4" ry="4" fill="rgb(255, 255, 255)"/><g class="header" pointer-events="all"><path class="banner" d="M 216 0 A 4 4 0 0 1 220 4 L 220 14 A 4 4 0 0 1 220 18 L 0 18 A 4 4 0 0 1 0 14 L 0 4 A 4 4 0 0 1 4 0 Z" style="fill: rgb(107, 174, 214);"/><path class="expand" fill="#FFFFFF" d="M -5 -10 L 8.66 0 L -5 10 Z" transform="translate(9, 9) rotate(90) scale(0.5,0.5)"/><text class="title" font-size="11" font-family="sans-serif" x="18" y="13" fill="#FFFFFF">Top@neo4j</text></g><path class="cost" fill="#F25A29" d="M 216 126 A 4 4 0 0 1 216 126 L 4 126 A 4 4 0 0 1 4 126 Z"/><rect class="outline" width="220" rx="4" ry="4" fill="none" stroke-width="1" style="stroke: rgb(75, 122, 150);" height="126"/><g class="detail identifiers" transform="translate(0, 32)" font-family="'Fira Code',Monaco,'Courier New',Terminal,monospace"><text font-size="10" x="3" text-anchor="start" fill="black" font-family="sans-serif">`s.name`, avgSmellFeel</text></g><g class="detail padding" transform="translate(0, 46)" font-family="'Helvetica Neue',Helvetica,Arial,sans-serif"><text font-size="10" x="3" text-anchor="start" fill="black" font-family="sans-serif"/><path class="divider" visibility="visible" d="M 0 -6 L 220 -6" stroke="#DFE1E3"/></g><g class="detail expression" transform="translate(0, 52)" font-family="'Fira Code',Monaco,'Courier New',Terminal,monospace"><text font-size="10" x="3" text-anchor="start" fill="black" font-family="sans-serif">avgSmellFeel DESC LIMIT 5</text></g><g class="detail padding" transform="translate(0, 66)" font-family="'Helvetica Neue',Helvetica,Arial,sans-serif"><text font-size="10" x="3" text-anchor="start" fill="black" font-family="sans-serif"/><path class="divider" visibility="visible" d="M 0 -6 L 220 -6" stroke="#DFE1E3"/></g><g class="detail order" transform="translate(0, 72)" font-family="'Helvetica Neue',Helvetica,Arial,sans-serif"><text font-size="10" x="3" text-anchor="start" fill="black" font-family="sans-serif">Ordered by avgSmellFeel DESC</text></g><g class="detail padding" transform="translate(0, 86)" font-family="'Helvetica Neue',Helvetica,Arial,sans-serif"><text font-size="10" x="3" text-anchor="start" fill="black" font-family="sans-serif"/><path class="divider" visibility="visible" d="M 0 -6 L 220 -6" stroke="#DFE1E3"/></g><g class="detail operator-memory" transform="translate(0, 92)" font-family="'Helvetica Neue',Helvetica,Arial,sans-serif"><text font-size="10" x="110" text-anchor="end" fill="black" font-family="sans-serif">1336 </text><text font-size="10" x="110" text-anchor="start" fill="black" font-family="sans-serif">memory (bytes)</text></g><g class="detail estimated-rows" transform="translate(0, 106)" font-family="'Helvetica Neue',Helvetica,Arial,sans-serif"><text font-size="10" x="110" text-anchor="end" fill="black" font-family="sans-serif">5 </text><text font-size="10" x="110" text-anchor="start" fill="black" font-family="sans-serif">estimated rows</text></g><g class="detail db-hits" transform="translate(0, 120)" font-family="'Helvetica Neue',Helvetica,Arial,sans-serif"><text font-size="10" x="110" text-anchor="end" fill="black" font-family="sans-serif">0 </text><text font-size="10" x="110" text-anchor="start" fill="black" font-family="sans-serif">db hits</text></g></g><g class="operator" transform="translate(0, -618.0457153320312)"><rect class="background" width="220" height="148.04573320742418" rx="4" ry="4" fill="rgb(255, 255, 255)"/><g class="header" pointer-events="all"><path class="banner" d="M 216 0 A 4 4 0 0 1 220 4 L 220 14 A 4 4 0 0 1 220 18 L 0 18 A 4 4 0 0 1 0 14 L 0 4 A 4 4 0 0 1 4 0 Z" style="fill: rgb(8, 48, 107);"/><path class="expand" fill="#FFFFFF" d="M -5 -10 L 8.66 0 L -5 10 Z" transform="translate(9, 9) rotate(90) scale(0.5,0.5)"/><text class="title" font-size="11" font-family="sans-serif" x="18" y="13" fill="#FFFFFF">EagerAggregation@neo4j</text></g><path class="cost" fill="#F25A29" d="M 0 120.00000000000001 L 220 120.00000000000001 L 220 144.04573320742418 A 4 4 0 0 1 216 148.04573320742418 L 4 148.04573320742418 A 4 4 0 0 1 0 144.04573320742418 Z"/><text class="cost" font-size="10" font-family="sans-serif" fill="white" x="110" text-anchor="end" y="134">2319 </text><text class="cost" font-size="10" font-family="sans-serif" fill="white" x="110" text-anchor="start" y="134">db hits</text><rect class="outline" width="220" rx="4" ry="4" fill="none" stroke-width="1" style="stroke: rgb(6, 34, 75);" height="148.04573320742418"/><g class="detail identifiers" transform="translate(0, 32)" font-family="'Fira Code',Monaco,'Courier New',Terminal,monospace"><text font-size="10" x="3" text-anchor="start" fill="black" font-family="sans-serif">`s.name`, avgSmellFeel</text></g><g class="detail padding" transform="translate(0, 46)" font-family="'Helvetica Neue',Helvetica,Arial,sans-serif"><text font-size="10" x="3" text-anchor="start" fill="black" font-family="sans-serif"/><path class="divider" visibility="visible" d="M 0 -6 L 220 -6" stroke="#DFE1E3"/></g><g class="detail expression" transform="translate(0, 52)" font-family="'Fira Code',Monaco,'Courier New',Terminal,monospace"><text font-size="10" x="3" text-anchor="start" fill="black" font-family="sans-serif">s.name AS `s.name`, AVG(toFloat(</text></g><g class="detail expression" transform="translate(0, 66)" font-family="'Fira Code',Monaco,'Courier New',Terminal,monospace"><text font-size="10" x="3" text-anchor="start" fill="black" font-family="sans-serif">cache[r.smell]) + toFloat(cache[r.</text></g><g class="detail expression" transform="translate(0, 80)" font-family="'Fira Code',Monaco,'Courier New',Terminal,monospace"><text font-size="10" x="3" text-anchor="start" fill="black" font-family="sans-serif">feel])) AS avgSmellFeel</text></g><g class="detail padding" transform="translate(0, 94)" font-family="'Helvetica Neue',Helvetica,Arial,sans-serif"><text font-size="10" x="3" text-anchor="start" fill="black" font-family="sans-serif"/><path class="divider" visibility="visible" d="M 0 -6 L 220 -6" stroke="#DFE1E3"/></g><g class="detail operator-memory" transform="translate(0, 100)" font-family="'Helvetica Neue',Helvetica,Arial,sans-serif"><text font-size="10" x="110" text-anchor="end" fill="black" font-family="sans-serif">22 592 </text><text font-size="10" x="110" text-anchor="start" fill="black" font-family="sans-serif">memory (bytes)</text></g><g class="detail estimated-rows" transform="translate(0, 114)" font-family="'Helvetica Neue',Helvetica,Arial,sans-serif"><text font-size="10" x="110" text-anchor="end" fill="black" font-family="sans-serif">178 </text><text font-size="10" x="110" text-anchor="start" fill="black" font-family="sans-serif">estimated rows</text></g></g><g class="operator" transform="translate(0, -774.0914916992188)"><rect class="background" width="220" height="106.04573320742416" rx="4" ry="4" fill="rgb(255, 255, 255)"/><g class="header" pointer-events="all"><path class="banner" d="M 216 0 A 4 4 0 0 1 220 4 L 220 14 A 4 4 0 0 1 220 18 L 0 18 A 4 4 0 0 1 0 14 L 0 4 A 4 4 0 0 1 4 0 Z" style="fill: rgb(33, 113, 181);"/><path class="expand" fill="#FFFFFF" d="M -5 -10 L 8.66 0 L -5 10 Z" transform="translate(9, 9) rotate(90) scale(0.5,0.5)"/><text class="title" font-size="11" font-family="sans-serif" x="18" y="13" fill="#FFFFFF">Filter@neo4j</text></g><path class="cost" fill="#F25A29" d="M 0 78 L 220 78 L 220 102.04573320742416 A 4 4 0 0 1 216 106.04573320742416 L 4 106.04573320742416 A 4 4 0 0 1 0 102.04573320742416 Z"/><text class="cost" font-size="10" font-family="sans-serif" fill="white" x="110" text-anchor="end" y="92">2319 </text><text class="cost" font-size="10" font-family="sans-serif" fill="white" x="110" text-anchor="start" y="92">db hits</text><rect class="outline" width="220" rx="4" ry="4" fill="none" stroke-width="1" style="stroke: rgb(23, 79, 127);" height="106.04573320742416"/><g class="detail identifiers" transform="translate(0, 32)" font-family="'Fira Code',Monaco,'Courier New',Terminal,monospace"><text font-size="10" x="3" text-anchor="start" fill="black" font-family="sans-serif">s, anon_2, u, anon_0, anon_1, b, r</text></g><g class="detail padding" transform="translate(0, 46)" font-family="'Helvetica Neue',Helvetica,Arial,sans-serif"><text font-size="10" x="3" text-anchor="start" fill="black" font-family="sans-serif"/><path class="divider" visibility="visible" d="M 0 -6 L 220 -6" stroke="#DFE1E3"/></g><g class="detail expression" transform="translate(0, 52)" font-family="'Fira Code',Monaco,'Courier New',Terminal,monospace"><text font-size="10" x="3" text-anchor="start" fill="black" font-family="sans-serif">s:STYLE</text></g><g class="detail padding" transform="translate(0, 66)" font-family="'Helvetica Neue',Helvetica,Arial,sans-serif"><text font-size="10" x="3" text-anchor="start" fill="black" font-family="sans-serif"/><path class="divider" visibility="visible" d="M 0 -6 L 220 -6" stroke="#DFE1E3"/></g><g class="detail estimated-rows" transform="translate(0, 72)" font-family="'Helvetica Neue',Helvetica,Arial,sans-serif"><text font-size="10" x="110" text-anchor="end" fill="black" font-family="sans-serif">31 725 </text><text font-size="10" x="110" text-anchor="start" fill="black" font-family="sans-serif">estimated rows</text></g></g><g class="operator" transform="translate(0, -932.64501953125)"><rect class="background" width="220" height="108.55353643765633" rx="4" ry="4" fill="rgb(255, 255, 255)"/><g class="header" pointer-events="all"><path class="banner" d="M 216 0 A 4 4 0 0 1 220 4 L 220 14 A 4 4 0 0 1 220 18 L 0 18 A 4 4 0 0 1 0 14 L 0 4 A 4 4 0 0 1 4 0 Z" style="fill: rgb(8, 81, 156);"/><path class="expand" fill="#FFFFFF" d="M -5 -10 L 8.66 0 L -5 10 Z" transform="translate(9, 9) rotate(90) scale(0.5,0.5)"/><text class="title" font-size="11" font-family="sans-serif" x="18" y="13" fill="#FFFFFF">Expand(All)@neo4j</text></g><path class="cost" fill="#F25A29" d="M 0 78 L 220 78 L 220 104.55353643765633 A 4 4 0 0 1 216 108.55353643765633 L 4 108.55353643765633 A 4 4 0 0 1 0 104.55353643765633 Z"/><text class="cost" font-size="10" font-family="sans-serif" fill="white" x="110" text-anchor="end" y="92">4638 </text><text class="cost" font-size="10" font-family="sans-serif" fill="white" x="110" text-anchor="start" y="92">db hits</text><rect class="outline" width="220" rx="4" ry="4" fill="none" stroke-width="1" style="stroke: rgb(6, 57, 109);" height="108.55353643765633"/><g class="detail identifiers" transform="translate(0, 32)" font-family="'Fira Code',Monaco,'Courier New',Terminal,monospace"><text font-size="10" x="3" text-anchor="start" fill="black" font-family="sans-serif">s, anon_2, u, anon_0, anon_1, b, r</text></g><g class="detail padding" transform="translate(0, 46)" font-family="'Helvetica Neue',Helvetica,Arial,sans-serif"><text font-size="10" x="3" text-anchor="start" fill="black" font-family="sans-serif"/><path class="divider" visibility="visible" d="M 0 -6 L 220 -6" stroke="#DFE1E3"/></g><g class="detail expression" transform="translate(0, 52)" font-family="'Fira Code',Monaco,'Courier New',Terminal,monospace"><text font-size="10" x="3" text-anchor="start" fill="black" font-family="sans-serif">(b)-[anon_2:HAS_STYLE]-&gt;(s)</text></g><g class="detail padding" transform="translate(0, 66)" font-family="'Helvetica Neue',Helvetica,Arial,sans-serif"><text font-size="10" x="3" text-anchor="start" fill="black" font-family="sans-serif"/><path class="divider" visibility="visible" d="M 0 -6 L 220 -6" stroke="#DFE1E3"/></g><g class="detail estimated-rows" transform="translate(0, 72)" font-family="'Helvetica Neue',Helvetica,Arial,sans-serif"><text font-size="10" x="110" text-anchor="end" fill="black" font-family="sans-serif">31 725 </text><text font-size="10" x="110" text-anchor="start" fill="black" font-family="sans-serif">estimated rows</text></g></g><g class="operator" transform="translate(0, -1088.6907958984375)"><rect class="background" width="220" height="106.04573320742416" rx="4" ry="4" fill="rgb(255, 255, 255)"/><g class="header" pointer-events="all"><path class="banner" d="M 216 0 A 4 4 0 0 1 220 4 L 220 14 A 4 4 0 0 1 220 18 L 0 18 A 4 4 0 0 1 0 14 L 0 4 A 4 4 0 0 1 4 0 Z" style="fill: rgb(33, 113, 181);"/><path class="expand" fill="#FFFFFF" d="M -5 -10 L 8.66 0 L -5 10 Z" transform="translate(9, 9) rotate(90) scale(0.5,0.5)"/><text class="title" font-size="11" font-family="sans-serif" x="18" y="13" fill="#FFFFFF">Filter@neo4j</text></g><path class="cost" fill="#F25A29" d="M 0 78 L 220 78 L 220 102.04573320742416 A 4 4 0 0 1 216 106.04573320742416 L 4 106.04573320742416 A 4 4 0 0 1 0 102.04573320742416 Z"/><text class="cost" font-size="10" font-family="sans-serif" fill="white" x="110" text-anchor="end" y="92">2319 </text><text class="cost" font-size="10" font-family="sans-serif" fill="white" x="110" text-anchor="start" y="92">db hits</text><rect class="outline" width="220" rx="4" ry="4" fill="none" stroke-width="1" style="stroke: rgb(23, 79, 127);" height="106.04573320742416"/><g class="detail identifiers" transform="translate(0, 32)" font-family="'Fira Code',Monaco,'Courier New',Terminal,monospace"><text font-size="10" x="3" text-anchor="start" fill="black" font-family="sans-serif">u, anon_0, anon_1, b, r</text></g><g class="detail padding" transform="translate(0, 46)" font-family="'Helvetica Neue',Helvetica,Arial,sans-serif"><text font-size="10" x="3" text-anchor="start" fill="black" font-family="sans-serif"/><path class="divider" visibility="visible" d="M 0 -6 L 220 -6" stroke="#DFE1E3"/></g><g class="detail expression" transform="translate(0, 52)" font-family="'Fira Code',Monaco,'Courier New',Terminal,monospace"><text font-size="10" x="3" text-anchor="start" fill="black" font-family="sans-serif">b:BEERS</text></g><g class="detail padding" transform="translate(0, 66)" font-family="'Helvetica Neue',Helvetica,Arial,sans-serif"><text font-size="10" x="3" text-anchor="start" fill="black" font-family="sans-serif"/><path class="divider" visibility="visible" d="M 0 -6 L 220 -6" stroke="#DFE1E3"/></g><g class="detail estimated-rows" transform="translate(0, 72)" font-family="'Helvetica Neue',Helvetica,Arial,sans-serif"><text font-size="10" x="110" text-anchor="end" fill="black" font-family="sans-serif">31 725 </text><text font-size="10" x="110" text-anchor="start" fill="black" font-family="sans-serif">estimated rows</text></g></g><g class="operator" transform="translate(0, -1247.2442626953125)"><rect class="background" width="220" height="108.55353643765633" rx="4" ry="4" fill="rgb(255, 255, 255)"/><g class="header" pointer-events="all"><path class="banner" d="M 216 0 A 4 4 0 0 1 220 4 L 220 14 A 4 4 0 0 1 220 18 L 0 18 A 4 4 0 0 1 0 14 L 0 4 A 4 4 0 0 1 4 0 Z" style="fill: rgb(8, 81, 156);"/><path class="expand" fill="#FFFFFF" d="M -5 -10 L 8.66 0 L -5 10 Z" transform="translate(9, 9) rotate(90) scale(0.5,0.5)"/><text class="title" font-size="11" font-family="sans-serif" x="18" y="13" fill="#FFFFFF">Expand(All)@neo4j</text></g><path class="cost" fill="#F25A29" d="M 0 78 L 220 78 L 220 104.55353643765633 A 4 4 0 0 1 216 108.55353643765633 L 4 108.55353643765633 A 4 4 0 0 1 0 104.55353643765633 Z"/><text class="cost" font-size="10" font-family="sans-serif" fill="white" x="110" text-anchor="end" y="92">4638 </text><text class="cost" font-size="10" font-family="sans-serif" fill="white" x="110" text-anchor="start" y="92">db hits</text><rect class="outline" width="220" rx="4" ry="4" fill="none" stroke-width="1" style="stroke: rgb(6, 57, 109);" height="108.55353643765633"/><g class="detail identifiers" transform="translate(0, 32)" font-family="'Fira Code',Monaco,'Courier New',Terminal,monospace"><text font-size="10" x="3" text-anchor="start" fill="black" font-family="sans-serif">u, anon_0, anon_1, b, r</text></g><g class="detail padding" transform="translate(0, 46)" font-family="'Helvetica Neue',Helvetica,Arial,sans-serif"><text font-size="10" x="3" text-anchor="start" fill="black" font-family="sans-serif"/><path class="divider" visibility="visible" d="M 0 -6 L 220 -6" stroke="#DFE1E3"/></g><g class="detail expression" transform="translate(0, 52)" font-family="'Fira Code',Monaco,'Courier New',Terminal,monospace"><text font-size="10" x="3" text-anchor="start" fill="black" font-family="sans-serif">(r)&lt;-[anon_1:REVIEWED]-(b)</text></g><g class="detail padding" transform="translate(0, 66)" font-family="'Helvetica Neue',Helvetica,Arial,sans-serif"><text font-size="10" x="3" text-anchor="start" fill="black" font-family="sans-serif"/><path class="divider" visibility="visible" d="M 0 -6 L 220 -6" stroke="#DFE1E3"/></g><g class="detail estimated-rows" transform="translate(0, 72)" font-family="'Helvetica Neue',Helvetica,Arial,sans-serif"><text font-size="10" x="110" text-anchor="end" fill="black" font-family="sans-serif">31 725 </text><text font-size="10" x="110" text-anchor="start" fill="black" font-family="sans-serif">estimated rows</text></g></g><g class="operator" transform="translate(0, -1421.773193359375)"><rect class="background" width="220" height="124.52891523755974" rx="4" ry="4" fill="rgb(255, 255, 255)"/><g class="header" pointer-events="all"><path class="banner" d="M 216 0 A 4 4 0 0 1 220 4 L 220 14 A 4 4 0 0 1 220 18 L 0 18 A 4 4 0 0 1 0 14 L 0 4 A 4 4 0 0 1 4 0 Z" style="fill: rgb(33, 113, 181);"/><path class="expand" fill="#FFFFFF" d="M -5 -10 L 8.66 0 L -5 10 Z" transform="translate(9, 9) rotate(90) scale(0.5,0.5)"/><text class="title" font-size="11" font-family="sans-serif" x="18" y="13" fill="#FFFFFF">Filter@neo4j</text></g><path class="cost" fill="#F25A29" d="M 0 92 L 220 92 L 220 120.52891523755974 A 4 4 0 0 1 216 124.52891523755974 L 4 124.52891523755974 A 4 4 0 0 1 0 120.52891523755974 Z"/><text class="cost" font-size="10" font-family="sans-serif" fill="white" x="110" text-anchor="end" y="106">8006 </text><text class="cost" font-size="10" font-family="sans-serif" fill="white" x="110" text-anchor="start" y="106">db hits</text><rect class="outline" width="220" rx="4" ry="4" fill="none" stroke-width="1" style="stroke: rgb(23, 79, 127);" height="124.52891523755974"/><g class="detail identifiers" transform="translate(0, 32)" font-family="'Fira Code',Monaco,'Courier New',Terminal,monospace"><text font-size="10" x="3" text-anchor="start" fill="black" font-family="sans-serif">u, anon_0, r</text></g><g class="detail padding" transform="translate(0, 46)" font-family="'Helvetica Neue',Helvetica,Arial,sans-serif"><text font-size="10" x="3" text-anchor="start" fill="black" font-family="sans-serif"/><path class="divider" visibility="visible" d="M 0 -6 L 220 -6" stroke="#DFE1E3"/></g><g class="detail expression" transform="translate(0, 52)" font-family="'Fira Code',Monaco,'Courier New',Terminal,monospace"><text font-size="10" x="3" text-anchor="start" fill="black" font-family="sans-serif">cache[r.feel] IS NOT NULL AND cache</text></g><g class="detail expression" transform="translate(0, 66)" font-family="'Fira Code',Monaco,'Courier New',Terminal,monospace"><text font-size="10" x="3" text-anchor="start" fill="black" font-family="sans-serif">[r.smell] IS NOT NULL AND r:REVIEWS</text></g><g class="detail padding" transform="translate(0, 80)" font-family="'Helvetica Neue',Helvetica,Arial,sans-serif"><text font-size="10" x="3" text-anchor="start" fill="black" font-family="sans-serif"/><path class="divider" visibility="visible" d="M 0 -6 L 220 -6" stroke="#DFE1E3"/></g><g class="detail estimated-rows" transform="translate(0, 86)" font-family="'Helvetica Neue',Helvetica,Arial,sans-serif"><text font-size="10" x="110" text-anchor="end" fill="black" font-family="sans-serif">31 726 </text><text font-size="10" x="110" text-anchor="start" fill="black" font-family="sans-serif">estimated rows</text></g></g><g class="operator" transform="translate(0, -1579.1700439453125)"><rect class="background" width="220" height="107.39691584059449" rx="4" ry="4" fill="rgb(255, 255, 255)"/><g class="header" pointer-events="all"><path class="banner" d="M 216 0 A 4 4 0 0 1 220 4 L 220 14 A 4 4 0 0 1 220 18 L 0 18 A 4 4 0 0 1 0 14 L 0 4 A 4 4 0 0 1 4 0 Z" style="fill: rgb(8, 81, 156);"/><path class="expand" fill="#FFFFFF" d="M -5 -10 L 8.66 0 L -5 10 Z" transform="translate(9, 9) rotate(90) scale(0.5,0.5)"/><text class="title" font-size="11" font-family="sans-serif" x="18" y="13" fill="#FFFFFF">Expand(All)@neo4j</text></g><path class="cost" fill="#F25A29" d="M 0 78 L 220 78 L 220 103.39691584059449 A 4 4 0 0 1 216 107.39691584059449 L 4 107.39691584059449 A 4 4 0 0 1 0 103.39691584059449 Z"/><text class="cost" font-size="10" font-family="sans-serif" fill="white" x="110" text-anchor="end" y="92">3369 </text><text class="cost" font-size="10" font-family="sans-serif" fill="white" x="110" text-anchor="start" y="92">db hits</text><rect class="outline" width="220" rx="4" ry="4" fill="none" stroke-width="1" style="stroke: rgb(6, 57, 109);" height="107.39691584059449"/><g class="detail identifiers" transform="translate(0, 32)" font-family="'Fira Code',Monaco,'Courier New',Terminal,monospace"><text font-size="10" x="3" text-anchor="start" fill="black" font-family="sans-serif">u, anon_0, r</text></g><g class="detail padding" transform="translate(0, 46)" font-family="'Helvetica Neue',Helvetica,Arial,sans-serif"><text font-size="10" x="3" text-anchor="start" fill="black" font-family="sans-serif"/><path class="divider" visibility="visible" d="M 0 -6 L 220 -6" stroke="#DFE1E3"/></g><g class="detail expression" transform="translate(0, 52)" font-family="'Fira Code',Monaco,'Courier New',Terminal,monospace"><text font-size="10" x="3" text-anchor="start" fill="black" font-family="sans-serif">(u)&lt;-[anon_0:POSTED]-(r)</text></g><g class="detail padding" transform="translate(0, 66)" font-family="'Helvetica Neue',Helvetica,Arial,sans-serif"><text font-size="10" x="3" text-anchor="start" fill="black" font-family="sans-serif"/><path class="divider" visibility="visible" d="M 0 -6 L 220 -6" stroke="#DFE1E3"/></g><g class="detail estimated-rows" transform="translate(0, 72)" font-family="'Helvetica Neue',Helvetica,Arial,sans-serif"><text font-size="10" x="110" text-anchor="end" fill="black" font-family="sans-serif">126 902 </text><text font-size="10" x="110" text-anchor="start" fill="black" font-family="sans-serif">estimated rows</text></g></g><g class="operator" transform="translate(0, -1749.6134033203125)"><rect class="background" width="220" height="120.44331229421658" rx="4" ry="4" fill="rgb(255, 255, 255)"/><g class="header" pointer-events="all"><path class="banner" d="M 216 0 A 4 4 0 0 1 220 4 L 220 14 A 4 4 0 0 1 220 18 L 0 18 A 4 4 0 0 1 0 14 L 0 4 A 4 4 0 0 1 4 0 Z" style="fill: rgb(33, 113, 181);"/><path class="expand" fill="#FFFFFF" d="M -5 -10 L 8.66 0 L -5 10 Z" transform="translate(9, 9) rotate(90) scale(0.5,0.5)"/><text class="title" font-size="11" font-family="sans-serif" x="18" y="13" fill="#FFFFFF">Filter@neo4j</text></g><path class="cost" fill="#F25A29" d="M 0 78 L 220 78 L 220 116.44331229421658 A 4 4 0 0 1 216 120.44331229421658 L 4 120.44331229421658 A 4 4 0 0 1 0 116.44331229421658 Z"/><text class="cost" font-size="10" font-family="sans-serif" fill="white" x="110" text-anchor="end" y="92">123 935 </text><text class="cost" font-size="10" font-family="sans-serif" fill="white" x="110" text-anchor="start" y="92">db hits</text><rect class="outline" width="220" rx="4" ry="4" fill="none" stroke-width="1" style="stroke: rgb(23, 79, 127);" height="120.44331229421658"/><g class="detail identifiers" transform="translate(0, 32)" font-family="'Fira Code',Monaco,'Courier New',Terminal,monospace"><text font-size="10" x="3" text-anchor="start" fill="black" font-family="sans-serif">u</text></g><g class="detail padding" transform="translate(0, 46)" font-family="'Helvetica Neue',Helvetica,Arial,sans-serif"><text font-size="10" x="3" text-anchor="start" fill="black" font-family="sans-serif"/><path class="divider" visibility="visible" d="M 0 -6 L 220 -6" stroke="#DFE1E3"/></g><g class="detail expression" transform="translate(0, 52)" font-family="'Fira Code',Monaco,'Courier New',Terminal,monospace"><text font-size="10" x="3" text-anchor="start" fill="black" font-family="sans-serif">u.name = $autostring_0</text></g><g class="detail padding" transform="translate(0, 66)" font-family="'Helvetica Neue',Helvetica,Arial,sans-serif"><text font-size="10" x="3" text-anchor="start" fill="black" font-family="sans-serif"/><path class="divider" visibility="visible" d="M 0 -6 L 220 -6" stroke="#DFE1E3"/></g><g class="detail estimated-rows" transform="translate(0, 72)" font-family="'Helvetica Neue',Helvetica,Arial,sans-serif"><text font-size="10" x="110" text-anchor="end" fill="black" font-family="sans-serif">6197 </text><text font-size="10" x="110" text-anchor="start" fill="black" font-family="sans-serif">estimated rows</text></g></g><g class="operator" transform="translate(0, -1920.0567626953125)"><rect class="background" width="220" height="120.44334149562764" rx="4" ry="4" fill="rgb(255, 255, 255)"/><g class="header" pointer-events="all"><path class="banner" d="M 216 0 A 4 4 0 0 1 220 4 L 220 14 A 4 4 0 0 1 220 18 L 0 18 A 4 4 0 0 1 0 14 L 0 4 A 4 4 0 0 1 4 0 Z" style="fill: rgb(158, 202, 225);"/><path class="expand" fill="#000000" d="M -5 -10 L 8.66 0 L -5 10 Z" transform="translate(9, 9) rotate(90) scale(0.5,0.5)"/><text class="title" font-size="11" font-family="sans-serif" x="18" y="13" fill="#000000">NodeByLabelScan@neo4j</text></g><path class="cost" fill="#F25A29" d="M 0 78 L 220 78 L 220 116.44334149562764 A 4 4 0 0 1 216 120.44334149562764 L 4 120.44334149562764 A 4 4 0 0 1 0 116.44334149562764 Z"/><text class="cost" font-size="10" font-family="sans-serif" fill="white" x="110" text-anchor="end" y="92">123 936 </text><text class="cost" font-size="10" font-family="sans-serif" fill="white" x="110" text-anchor="start" y="92">db hits</text><rect class="outline" width="220" rx="4" ry="4" fill="none" stroke-width="1" style="stroke: rgb(111, 141, 158);" height="120.44334149562764"/><g class="detail identifiers" transform="translate(0, 32)" font-family="'Fira Code',Monaco,'Courier New',Terminal,monospace"><text font-size="10" x="3" text-anchor="start" fill="black" font-family="sans-serif">u</text></g><g class="detail padding" transform="translate(0, 46)" font-family="'Helvetica Neue',Helvetica,Arial,sans-serif"><text font-size="10" x="3" text-anchor="start" fill="black" font-family="sans-serif"/><path class="divider" visibility="visible" d="M 0 -6 L 220 -6" stroke="#DFE1E3"/></g><g class="detail expression" transform="translate(0, 52)" font-family="'Fira Code',Monaco,'Courier New',Terminal,monospace"><text font-size="10" x="3" text-anchor="start" fill="black" font-family="sans-serif">u:USER</text></g><g class="detail padding" transform="translate(0, 66)" font-family="'Helvetica Neue',Helvetica,Arial,sans-serif"><text font-size="10" x="3" text-anchor="start" fill="black" font-family="sans-serif"/><path class="divider" visibility="visible" d="M 0 -6 L 220 -6" stroke="#DFE1E3"/></g><g class="detail estimated-rows" transform="translate(0, 72)" font-family="'Helvetica Neue',Helvetica,Arial,sans-serif"><text font-size="10" x="110" text-anchor="end" fill="black" font-family="sans-serif">123 935 </text><text font-size="10" x="110" text-anchor="start" fill="black" font-family="sans-serif">estimated rows</text></g></g></g></svg>